<svg xmlns="http://www.w3.org/2000/svg" xmlns:xlink="http://www.w3.org/1999/xlink" viewBox="0 0 577.93 894.8"><defs><style>.cls-1{fill:#fff;}.cls-136,.cls-2,.cls-5,.cls-6{fill:#210f45;}.cls-115,.cls-3,.cls-4,.cls-65,.cls-66,.cls-67,.cls-68,.cls-7,.cls-8,.cls-9{fill:none;}.cls-3,.cls-65,.cls-66,.cls-67,.cls-68,.cls-7,.cls-8{stroke-linecap:square;}.cls-115,.cls-136,.cls-3,.cls-4,.cls-65,.cls-66,.cls-67,.cls-68,.cls-7,.cls-8,.cls-9{stroke-miterlimit:10;}.cls-3,.cls-4,.cls-7,.cls-8{stroke-width:0.97px;}.cls-3{stroke:url(#linear-gradient);}.cls-136,.cls-4{stroke:#210f45;}.cls-4{stroke-linecap:round;}.cls-5,.cls-6{font-size:10.53px;font-family:HalisR-Regular, Halis R;}.cls-5{letter-spacing:0.19em;}.cls-6{letter-spacing:0.19em;}.cls-7{stroke:url(#linear-gradient-2);}.cls-68,.cls-8{stroke:#a6169f;}.cls-9{stroke:#e6e6e6;stroke-width:0.49px;}.cls-10,.cls-34,.cls-36,.cls-42,.cls-56{font-size:7.2px;fill:#58595b;font-family:Calibre-Regular, Calibre;}.cls-10,.cls-43{letter-spacing:0.12em;}.cls-11{letter-spacing:0.12em;}.cls-12{letter-spacing:0.11em;}.cls-13{letter-spacing:0.11em;}.cls-14{letter-spacing:0.11em;}.cls-15{letter-spacing:0.1em;}.cls-16{letter-spacing:0.08em;}.cls-17{letter-spacing:0.1em;}.cls-18{fill:#939598;letter-spacing:0.11em;}.cls-19{letter-spacing:0.12em;}.cls-20{letter-spacing:0.11em;}.cls-21{letter-spacing:0.11em;}.cls-22{letter-spacing:0.1em;}.cls-23{letter-spacing:0.08em;}.cls-24{letter-spacing:0.12em;}.cls-25{letter-spacing:0.12em;}.cls-26{letter-spacing:0.11em;}.cls-27{letter-spacing:0.09em;}.cls-28{letter-spacing:0.1em;}.cls-29{letter-spacing:0.11em;}.cls-30{letter-spacing:0.11em;}.cls-31{letter-spacing:0.11em;}.cls-32{letter-spacing:0.11em;}.cls-33{letter-spacing:0.09em;}.cls-34{letter-spacing:0.11em;}.cls-35{letter-spacing:0.12em;}.cls-36{letter-spacing:0.13em;}.cls-37{letter-spacing:0.11em;}.cls-38,.cls-56{letter-spacing:0.1em;}.cls-39{letter-spacing:0.07em;}.cls-40{letter-spacing:0.09em;}.cls-41{letter-spacing:0.11em;}.cls-42{letter-spacing:0.11em;}.cls-44{letter-spacing:0.1em;}.cls-45{letter-spacing:0.1em;}.cls-46{letter-spacing:0.12em;}.cls-47{letter-spacing:0.12em;}.cls-48{letter-spacing:0.1em;}.cls-49{letter-spacing:0.11em;}.cls-50{letter-spacing:0.11em;}.cls-51{letter-spacing:0.1em;}.cls-52{letter-spacing:0.12em;}.cls-53{letter-spacing:0.11em;}.cls-54{letter-spacing:0.11em;}.cls-55{letter-spacing:0.12em;}.cls-57{letter-spacing:0.09em;}.cls-58{letter-spacing:0.08em;}.cls-59{letter-spacing:0.11em;}.cls-60{letter-spacing:0.11em;}.cls-61{letter-spacing:0.09em;}.cls-62{letter-spacing:0.11em;}.cls-63{letter-spacing:0.11em;}.cls-64{fill:#1f0e3a;}.cls-65,.cls-66,.cls-67,.cls-68{stroke-width:0.85px;}.cls-65{stroke:url(#linear-gradient-3);}.cls-66{stroke:url(#linear-gradient-4);}.cls-67{stroke:url(#linear-gradient-5);}.cls-69{font-size:30.47px;}.cls-69,.cls-74{font-family:HalisR-ExtraLight, Halis R;}.cls-70{letter-spacing:-0.01em;}.cls-71{letter-spacing:-0.01em;}.cls-72{letter-spacing:-0.01em;}.cls-73{letter-spacing:-0.02em;}.cls-74{font-size:17.6px;letter-spacing:0.18em;}.cls-75{letter-spacing:0.19em;}.cls-76{letter-spacing:0.16em;}.cls-77{letter-spacing:0.16em;}.cls-78{letter-spacing:0.17em;}.cls-79{letter-spacing:0.15em;}.cls-80{letter-spacing:0.17em;}.cls-81{letter-spacing:0.18em;}.cls-82{letter-spacing:0.16em;}.cls-83{letter-spacing:0.17em;}.cls-84{font-size:11px;letter-spacing:0.18em;}.cls-128,.cls-84,.cls-89{font-family:HalisR-Light, Halis R;}.cls-85{letter-spacing:0.2em;}.cls-86{letter-spacing:0.21em;}.cls-87{letter-spacing:0.19em;}.cls-88{letter-spacing:0.2em;}.cls-128,.cls-89{font-size:9px;}.cls-90{letter-spacing:-0.02em;}.cls-91{letter-spacing:0.01em;}.cls-92{letter-spacing:-0.03em;}.cls-93{letter-spacing:0.01em;}.cls-94{letter-spacing:0.02em;}.cls-95{letter-spacing:0em;}.cls-96{letter-spacing:-0.01em;}.cls-97{letter-spacing:0em;}.cls-98{letter-spacing:0.02em;}.cls-99{letter-spacing:0.01em;}.cls-100{letter-spacing:0.02em;}.cls-101{letter-spacing:0.01em;}.cls-102{letter-spacing:0.02em;}.cls-103{letter-spacing:0.01em;}.cls-104{letter-spacing:0.01em;}.cls-105,.cls-108{font-size:12.1px;}.cls-105{font-family:HalisR-Book, Halis R;}.cls-106{letter-spacing:0em;}.cls-107{letter-spacing:0em;}.cls-108{font-family:HalisR-Medium, Halis R;}.cls-109{letter-spacing:0em;}.cls-110{letter-spacing:0.01em;}.cls-111{letter-spacing:0.01em;}.cls-112{letter-spacing:0.01em;}.cls-113{letter-spacing:0.01em;}.cls-114{fill:url(#linear-gradient-6);}.cls-115{stroke:#1f0e3a;stroke-width:0.25px;}.cls-116{letter-spacing:0.01em;}.cls-117{letter-spacing:0.01em;}.cls-118{letter-spacing:-0.02em;}.cls-119{letter-spacing:0.02em;}.cls-120{letter-spacing:0em;}.cls-121,.cls-128{letter-spacing:0.03em;}.cls-122{letter-spacing:0.02em;}.cls-123{letter-spacing:-0.04em;}.cls-124{letter-spacing:0.02em;}.cls-125{letter-spacing:-0.01em;}.cls-126{letter-spacing:0.01em;}.cls-127{fill:#a6169f;}.cls-129{letter-spacing:0.02em;}.cls-130{letter-spacing:0.01em;}.cls-131{letter-spacing:0em;}.cls-132{letter-spacing:0.02em;}.cls-133{letter-spacing:0em;}.cls-134{fill:#481a8f;}.cls-135{fill:url(#New_Gradient_Swatch_2);}.cls-136{stroke-width:0.33px;}</style><linearGradient id="linear-gradient" x1="141.94" y1="266.06" x2="189.3" y2="285.2" gradientUnits="userSpaceOnUse"><stop offset="0.15" stop-color="#210f45"/><stop offset="0.38" stop-color="#210f45"/><stop offset="0.47" stop-color="#210f45" stop-opacity="0"/><stop offset="0.54" stop-color="#210f45" stop-opacity="0"/><stop offset="0.62" stop-color="#210f45"/><stop offset="0.77" stop-color="#210f45"/></linearGradient><linearGradient id="linear-gradient-2" x1="378.49" y1="266.46" x2="425.85" y2="285.6" gradientUnits="userSpaceOnUse"><stop offset="0.4" stop-color="#a6169f"/><stop offset="0.46" stop-color="#a6169f" stop-opacity="0"/><stop offset="0.54" stop-color="#a6169f" stop-opacity="0"/><stop offset="0.6" stop-color="#a6169f"/></linearGradient><linearGradient id="linear-gradient-3" x1="141.93" y1="442.19" x2="189.31" y2="461.33" gradientUnits="userSpaceOnUse"><stop offset="0.15" stop-color="#fff"/><stop offset="0.4" stop-color="#fff"/><stop offset="0.46" stop-color="#fffeff" stop-opacity="0"/><stop offset="0.54" stop-color="#fff" stop-opacity="0"/><stop offset="0.6" stop-color="#fff"/><stop offset="0.77" stop-color="#fff"/></linearGradient><linearGradient id="linear-gradient-4" x1="139.07" y1="451.76" x2="192.17" y2="451.76" gradientUnits="userSpaceOnUse"><stop offset="0" stop-color="#fff"/><stop offset="1" stop-color="#fff"/></linearGradient><linearGradient id="linear-gradient-5" x1="379.14" y1="442.55" x2="426.62" y2="461.73" gradientUnits="userSpaceOnUse"><stop offset="0.15" stop-color="#a6169f"/><stop offset="0.4" stop-color="#a6169f"/><stop offset="0.46" stop-color="#a6169f" stop-opacity="0"/><stop offset="0.54" stop-color="#a6169f" stop-opacity="0"/><stop offset="0.6" stop-color="#a6169f"/><stop offset="0.77" stop-color="#a6169f"/></linearGradient><linearGradient id="linear-gradient-6" x1="4135.77" y1="2364.58" x2="4347.12" y2="2364.58" gradientTransform="translate(-3836 -1544.53)" gradientUnits="userSpaceOnUse"><stop offset="0" stop-color="#310b42"/><stop offset="1" stop-color="#230d43"/></linearGradient><linearGradient id="New_Gradient_Swatch_2" x1="3396.65" y1="2412.35" x2="3607.99" y2="2412.35" gradientTransform="translate(-3335.37 -1592.11)" gradientUnits="userSpaceOnUse"><stop offset="0" stop-color="#d8248a"/><stop offset="1" stop-color="#4a10ab"/></linearGradient></defs><title>ht-brand</title><g id="Layer_2" data-name="Layer 2"><g id="Layer_1-2" data-name="Layer 1"><rect class="cls-1" width="577.93" height="894.8"/><polygon class="cls-2" points="158 271.01 146.38 271.01 145.7 276.22 150.01 276.22 149.44 282.63 152.61 281.12 153.18 276.22 157.3 276.22 158 271.01"/><polygon class="cls-2" points="181.19 271.01 182.77 282.63 175.03 271.01 181.19 271.01"/><path class="cls-3" d="M191.68,275.63a12.27,12.27,0,0,1-12.27,12.27,11.85,11.85,0,0,1-10.05-5.23c-2.61-3.53-4.92-10.79-7.53-14.18a12,12,0,0,0-10-5.14,12.27,12.27,0,0,0-12.27,12.27"/><path class="cls-4" d="M139.56,276a12.28,12.28,0,0,0,22.26,6.73c2.62-3.39,4.93-10.65,7.53-14.18a11.85,11.85,0,0,1,10.05-5.23,12.27,12.27,0,0,1,12.27,12.27"/><text class="cls-5" transform="translate(108.89 305.55)"><tspan xml:space="preserve">HAMMER   TUSK</tspan></text><text class="cls-6" transform="translate(174.44 305.55)">&amp; </text><text class="cls-5" transform="translate(345.44 305.15)"><tspan xml:space="preserve">HAMMER   TUSK</tspan></text><text class="cls-5" transform="translate(410.98 305.15)">&amp; </text><polygon class="cls-2" points="417.74 271.41 419.32 283.02 411.58 271.41 417.74 271.41"/><path class="cls-7" d="M428.23,276A12.27,12.27,0,0,1,416,288.3a11.85,11.85,0,0,1-10.05-5.23c-2.61-3.53-4.92-10.79-7.53-14.18a12,12,0,0,0-10-5.14A12.27,12.27,0,0,0,376.11,276"/><path class="cls-8" d="M376.11,276.43a12.28,12.28,0,0,0,22.26,6.73c2.62-3.39,4.93-10.65,7.53-14.18A11.85,11.85,0,0,1,416,263.75,12.27,12.27,0,0,1,428.23,276"/><polygon class="cls-2" points="394.44 271.41 382.82 271.41 382.14 276.62 386.45 276.62 385.88 283.02 389.05 281.52 389.62 276.62 393.74 276.62 394.44 271.41"/><line class="cls-9" x1="60.91" y1="389.7" x2="272.62" y2="389.7"/><line class="cls-9" x1="60.91" y1="234.7" x2="272.62" y2="234.7"/><line class="cls-9" x1="299.41" y1="389.7" x2="511.12" y2="389.7"/><line class="cls-9" x1="60.91" y1="588.7" x2="272.62" y2="588.7"/><line class="cls-9" x1="299.41" y1="588.7" x2="511.12" y2="588.7"/><line class="cls-9" x1="60.91" y1="736.04" x2="272.62" y2="736.04"/><line class="cls-9" x1="299.41" y1="736.04" x2="511.12" y2="736.04"/><line class="cls-9" x1="299.41" y1="234.7" x2="511.12" y2="234.7"/><text class="cls-10" transform="translate(60.83 210.43) rotate(0.2)">MON<tspan class="cls-11" x="16.81" y="0">O</tspan><tspan class="cls-12" x="22.19" y="0">CH</tspan><tspan class="cls-13" x="32.74" y="0">R</tspan><tspan x="37.49" y="0">O</tspan><tspan class="cls-14" x="42.85" y="0">M</tspan><tspan class="cls-15" x="48.96" y="0">E </tspan><tspan class="cls-16" x="55.7" y="0">L</tspan><tspan class="cls-11" x="59.94" y="0">OG</tspan><tspan class="cls-17" x="70.56" y="0">O</tspan><tspan class="cls-18"><tspan x="0" y="11">(</tspan><tspan class="cls-19" x="3.12" y="11">US</tspan><tspan class="cls-17" x="12.83" y="11">E </tspan><tspan class="cls-20" x="19.57" y="11">W</tspan><tspan class="cls-21" x="25.89" y="11">H</tspan><tspan class="cls-22" x="31.39" y="11">E</tspan><tspan class="cls-15" x="35.84" y="11">N </tspan><tspan class="cls-23" x="43.36" y="11">L</tspan><tspan class="cls-24" x="47.6" y="11">OG</tspan><tspan class="cls-17" x="58.22" y="11">O </tspan><tspan class="cls-25" x="65.78" y="11">I</tspan><tspan class="cls-15" x="68.25" y="11">S </tspan><tspan class="cls-26" x="74.95" y="11">N</tspan><tspan class="cls-27" x="80.26" y="11">O</tspan><tspan class="cls-17" x="85.42" y="11">T </tspan><tspan class="cls-28" x="92.54" y="11">T</tspan><tspan class="cls-14" x="97.37" y="11">H</tspan><tspan class="cls-15" x="102.88" y="11">E </tspan><tspan class="cls-29" x="109.62" y="11">MA</tspan><tspan class="cls-30" x="120.78" y="11">I</tspan><tspan class="cls-15" x="123.21" y="11">N </tspan><tspan class="cls-31" x="130.72" y="11">F</tspan><tspan class="cls-11" x="135" y="11">O</tspan><tspan class="cls-32" x="140.38" y="11">C</tspan><tspan class="cls-19" x="145.42" y="11">U</tspan><tspan class="cls-33" x="150.63" y="11">S</tspan><tspan class="cls-15" x="154.96" y="11">)</tspan></tspan></text><text class="cls-34" transform="translate(299.2 210.04)">F<tspan class="cls-35" x="4.25" y="0">U</tspan><tspan class="cls-15" x="9.46" y="0">LL </tspan><tspan class="cls-16" x="20.47" y="0">L</tspan><tspan class="cls-11" x="24.71" y="0">OG</tspan><tspan class="cls-17" x="35.33" y="0">O</tspan><tspan class="cls-18"><tspan x="0" y="11">(</tspan><tspan class="cls-19" x="3.12" y="11">US</tspan><tspan class="cls-17" x="12.83" y="11">E </tspan><tspan class="cls-20" x="19.57" y="11">W</tspan><tspan class="cls-21" x="25.89" y="11">H</tspan><tspan class="cls-22" x="31.39" y="11">E</tspan><tspan class="cls-15" x="35.84" y="11">N </tspan><tspan class="cls-23" x="43.36" y="11">L</tspan><tspan class="cls-24" x="47.6" y="11">OG</tspan><tspan class="cls-17" x="58.22" y="11">O </tspan><tspan class="cls-25" x="65.78" y="11">I</tspan><tspan class="cls-15" x="68.25" y="11">S </tspan><tspan class="cls-28" x="74.95" y="11">T</tspan><tspan class="cls-14" x="79.78" y="11">H</tspan><tspan class="cls-15" x="85.29" y="11">E </tspan><tspan class="cls-29" x="92.03" y="11">MA</tspan><tspan class="cls-30" x="103.19" y="11">I</tspan><tspan class="cls-17" x="105.61" y="11">N </tspan><tspan class="cls-31" x="113.13" y="11">F</tspan><tspan class="cls-11" x="117.41" y="11">O</tspan><tspan class="cls-32" x="122.79" y="11">C</tspan><tspan class="cls-19" x="127.82" y="11">U</tspan><tspan class="cls-33" x="133.03" y="11">S</tspan><tspan class="cls-15" x="137.37" y="11">)</tspan></tspan></text><text class="cls-36" transform="translate(60.84 578.04)">T<tspan class="cls-37" x="5.02" y="0">Y</tspan><tspan class="cls-38" x="9.83" y="0">PE</tspan><tspan class="cls-39" x="18.89" y="0">F</tspan><tspan class="cls-40" x="22.9" y="0">A</tspan><tspan class="cls-41" x="27.82" y="0">C</tspan><tspan class="cls-17" x="32.86" y="0">E</tspan></text><text class="cls-42" transform="translate(299.2 578.04)">F<tspan class="cls-43" x="4.28" y="0">O</tspan><tspan class="cls-44" x="9.64" y="0">N</tspan><tspan class="cls-17" x="14.88" y="0">T </tspan><tspan class="cls-20" x="21.99" y="0">W</tspan><tspan class="cls-45" x="28.31" y="0">E</tspan><tspan class="cls-46" x="32.77" y="0">I</tspan><tspan class="cls-47" x="35.22" y="0">G</tspan><tspan class="cls-48" x="40.45" y="0">H</tspan><tspan class="cls-49" x="45.89" y="0">T</tspan><tspan class="cls-17" x="50.78" y="0">S</tspan></text><text class="cls-42" transform="translate(60.84 725.37)">F<tspan class="cls-43" x="4.28" y="0">O</tspan><tspan class="cls-50" x="9.64" y="0">R</tspan><tspan class="cls-51" x="14.41" y="0">E</tspan><tspan class="cls-47" x="18.83" y="0">G</tspan><tspan class="cls-13" x="24.06" y="0">R</tspan><tspan class="cls-52" x="28.81" y="0">OU</tspan><tspan class="cls-53" x="39.39" y="0">N</tspan><tspan class="cls-15" x="44.69" y="0">D </tspan><tspan class="cls-54" x="52.08" y="0">C</tspan><tspan class="cls-55" x="57.1" y="0">O</tspan><tspan class="cls-16" x="62.46" y="0">L</tspan><tspan class="cls-55" x="66.7" y="0">O</tspan><tspan class="cls-49" x="72.06" y="0">R</tspan><tspan class="cls-15" x="76.84" y="0">S</tspan></text><text class="cls-56" transform="translate(299.2 725.37)">B<tspan class="cls-57" x="4.62" y="0">A</tspan><tspan class="cls-41" x="9.54" y="0">C</tspan><tspan class="cls-58" x="14.58" y="0">K</tspan><tspan class="cls-47" x="19.2" y="0">G</tspan><tspan class="cls-13" x="24.44" y="0">R</tspan><tspan class="cls-52" x="29.19" y="0">OU</tspan><tspan class="cls-59" x="39.76" y="0">N</tspan><tspan class="cls-15" x="45.07" y="0">D </tspan><tspan class="cls-60" x="52.45" y="0">C</tspan><tspan class="cls-43" x="57.48" y="0">O</tspan><tspan class="cls-16" x="62.84" y="0">L</tspan><tspan class="cls-55" x="67.08" y="0">O</tspan><tspan class="cls-49" x="72.44" y="0">R</tspan><tspan class="cls-15" x="77.21" y="0">S</tspan></text><text class="cls-10" transform="translate(60.84 379.04)">MON<tspan class="cls-11" x="16.81" y="0">O</tspan><tspan class="cls-12" x="22.19" y="0">CH</tspan><tspan class="cls-13" x="32.74" y="0">R</tspan><tspan x="37.49" y="0">O</tspan><tspan class="cls-14" x="42.85" y="0">M</tspan><tspan class="cls-15" x="48.96" y="0">E </tspan><tspan class="cls-16" x="55.7" y="0">L</tspan><tspan class="cls-11" x="59.94" y="0">OG</tspan><tspan class="cls-17" x="70.56" y="0">O </tspan><tspan class="cls-55" x="78.12" y="0">O</tspan><tspan class="cls-15" x="83.48" y="0">N </tspan><tspan class="cls-61" x="91" y="0">D</tspan><tspan class="cls-62" x="95.98" y="0">A</tspan><tspan class="cls-50" x="101.06" y="0">R</tspan><tspan class="cls-17" x="105.83" y="0">K </tspan><tspan class="cls-63" x="112.92" y="0">B</tspan><tspan class="cls-17" x="117.62" y="0">G</tspan></text><text class="cls-34" transform="translate(299.2 379.04)">F<tspan class="cls-35" x="4.25" y="0">U</tspan><tspan class="cls-15" x="9.46" y="0">LL </tspan><tspan class="cls-16" x="20.47" y="0">L</tspan><tspan class="cls-11" x="24.71" y="0">OG</tspan><tspan class="cls-17" x="35.33" y="0">O </tspan><tspan class="cls-55" x="42.89" y="0">O</tspan><tspan class="cls-15" x="48.25" y="0">N </tspan><tspan class="cls-61" x="55.77" y="0">D</tspan><tspan class="cls-62" x="60.75" y="0">A</tspan><tspan class="cls-50" x="65.82" y="0">R</tspan><tspan class="cls-15" x="70.6" y="0">K </tspan><tspan class="cls-63" x="77.69" y="0">B</tspan><tspan class="cls-17" x="82.39" y="0">G</tspan></text><rect class="cls-64" x="60.84" y="398.95" width="211.79" height="123.17"/><rect class="cls-64" x="299.2" y="398.95" width="211.79" height="123.17"/><path class="cls-1" d="M111.65,482a.16.16,0,0,1-.16.16h-.58a.16.16,0,0,1-.16-.16v-7.07a.16.16,0,0,1,.16-.16h.58a.16.16,0,0,1,.16.16v3.21h4.14v-3.21a.16.16,0,0,1,.16-.16h.59a.16.16,0,0,1,.16.16V482a.16.16,0,0,1-.16.16H116a.16.16,0,0,1-.16-.16v-3.1h-4.14Z"/><path class="cls-1" d="M124.82,480.08h-2.94l-.76,1.89a.24.24,0,0,1-.22.15h-.66a.1.1,0,0,1-.09-.15l3-7.17a.22.22,0,0,1,.21-.14.2.2,0,0,1,.19.14l3.05,7.17a.1.1,0,0,1-.09.15h-.69a.24.24,0,0,1-.22-.15Zm-2.64-.74h2.33l-1.17-2.88Z"/><path class="cls-1" d="M134.52,482.07a.22.22,0,0,1-.2.14.23.23,0,0,1-.21-.14l-2.17-5.19-1.63,5.1a.21.21,0,0,1-.2.15h-.65a.11.11,0,0,1-.11-.15l2.32-7.19a.19.19,0,0,1,.17-.12.19.19,0,0,1,.18.12l2.3,5.6,2.31-5.6a.17.17,0,0,1,.16-.12.18.18,0,0,1,.17.12l2.33,7.19a.11.11,0,0,1-.11.15h-.65a.23.23,0,0,1-.21-.15l-1.63-5.11Z"/><path class="cls-1" d="M147.21,482.07a.22.22,0,0,1-.2.14.23.23,0,0,1-.21-.14l-2.17-5.19L143,482a.21.21,0,0,1-.2.15h-.65A.11.11,0,0,1,142,482l2.32-7.19a.19.19,0,0,1,.17-.12.2.2,0,0,1,.18.12l2.3,5.6,2.31-5.6a.17.17,0,0,1,.16-.12.18.18,0,0,1,.17.12L152,482a.11.11,0,0,1-.11.15h-.65A.23.23,0,0,1,151,482l-1.63-5.11Z"/><path class="cls-1" d="M156.31,478.86v2.5H160a.16.16,0,0,1,.16.16V482a.16.16,0,0,1-.16.16h-4.47a.16.16,0,0,1-.16-.16v-7.07a.16.16,0,0,1,.16-.16H160a.16.16,0,0,1,.16.16v.44a.16.16,0,0,1-.16.16h-3.73v2.61h2.88a.16.16,0,0,1,.16.16v.44a.16.16,0,0,1-.16.16Z"/><path class="cls-1" d="M164.77,482a.16.16,0,0,1-.16.16H164a.16.16,0,0,1-.16-.16v-7.07a.16.16,0,0,1,.16-.16h2.54a2.27,2.27,0,0,1,2.53,2.27,2.41,2.41,0,0,1-1.72,2.22c.39.84.89,1.89,1.3,2.76a.1.1,0,0,1-.09.15H168a.23.23,0,0,1-.22-.15l-1.28-2.68h-1.74Zm1.93-3.44a1.48,1.48,0,0,0,1.53-1.52,1.46,1.46,0,0,0-1.57-1.52h-1.89v3Z"/><path class="cls-1" d="M190,475.49h-2a.16.16,0,0,1-.16-.16v-.44a.16.16,0,0,1,.16-.16h5a.16.16,0,0,1,.16.16v.44a.16.16,0,0,1-.16.16h-2.07V482a.16.16,0,0,1-.16.16h-.59A.16.16,0,0,1,190,482Z"/><path class="cls-1" d="M201.32,479.33v-4.44a.16.16,0,0,1,.16-.16h.59a.16.16,0,0,1,.16.16v4.44a2.85,2.85,0,1,1-5.7,0v-4.44a.16.16,0,0,1,.16-.16h.57a.16.16,0,0,1,.16.16v4.44a2,2,0,1,0,3.91,0Z"/><path class="cls-1" d="M206.77,476.46c0,1.86,4.25.91,4.25,3.74,0,1.13-1.07,2-2.59,2a5.25,5.25,0,0,1-2.48-.57.18.18,0,0,1-.07-.22c.07-.15.14-.29.21-.42a.16.16,0,0,1,.21-.08,5.2,5.2,0,0,0,2,.46c.9,0,1.66-.46,1.71-1.18.17-2.1-4.1-1-4.21-3.62-.05-1.34,1-2,2.26-2a6.79,6.79,0,0,1,2.32.49.16.16,0,0,1,.1.21c-.06.17-.11.31-.16.45a.16.16,0,0,1-.21.09,7.13,7.13,0,0,0-2-.39c-.7,0-1.34.26-1.37,1Z"/><path class="cls-1" d="M214.88,482.12a.16.16,0,0,1-.16-.16v-7.07a.16.16,0,0,1,.16-.16h.58a.16.16,0,0,1,.16.16v3.29l3.48-3.35a.42.42,0,0,1,.27-.11h.82a.07.07,0,0,1,.07.07.17.17,0,0,1-.05.12l-3.54,3.36,3.73,3.59a.19.19,0,0,1,.07.16.09.09,0,0,1-.09.09h-.78a.42.42,0,0,1-.27-.11l-3.72-3.62V482a.16.16,0,0,1-.16.16Z"/><path class="cls-1" d="M178.93,478.28c.54.58,1.16,1.22,1.7,1.82a5.27,5.27,0,0,0,.42-1.33.15.15,0,0,1,.15-.13h0l.48.07a.18.18,0,0,1,.14.19,4.77,4.77,0,0,1-.65,1.82c.22.22.87.78.87,1a.15.15,0,0,1-.05.12l-.37.34a.15.15,0,0,1-.11,0,.17.17,0,0,1-.12-.05l-.72-.75a2.85,2.85,0,0,1-2.08.87,2.2,2.2,0,0,1-2.35-2.08,2.37,2.37,0,0,1,1.39-2c-.63-.77-.92-1-.92-1.83a1.67,1.67,0,0,1,1.79-1.67,1.58,1.58,0,0,1,1.7,1.63A2.55,2.55,0,0,1,178.93,478.28Zm-.35,3.16a2.09,2.09,0,0,0,1.57-.69l-1.92-2c-.57.38-1.08.78-1.08,1.35A1.35,1.35,0,0,0,178.58,481.44Zm-1-5a2.22,2.22,0,0,0,.81,1.3,1.67,1.67,0,0,0,1-1.43.86.86,0,0,0-.91-.92.93.93,0,0,0-.91,1s0,0,0,.06Z"/><polygon class="cls-1" points="181.23 447.13 182.81 458.77 175.05 447.13 181.23 447.13"/><path class="cls-65" d="M191.74,451.76a12.3,12.3,0,0,1-12.3,12.3,11.88,11.88,0,0,1-10.08-5.24c-2.61-3.54-4.93-10.81-7.55-14.22a12.08,12.08,0,0,0-10-5.15,12.3,12.3,0,0,0-12.3,12.3"/><path class="cls-66" d="M139.5,452.17a12.31,12.31,0,0,0,22.32,6.74c2.63-3.4,4.94-10.68,7.55-14.22a11.88,11.88,0,0,1,10.08-5.24,12.3,12.3,0,0,1,12.3,12.3"/><polygon class="cls-1" points="157.88 447.13 146.22 447.13 145.54 452.36 149.86 452.36 149.29 458.77 152.47 457.27 153.04 452.36 157.17 452.36 157.88 447.13"/><path class="cls-1" d="M348.08,481.61a.16.16,0,0,1-.16.16h-.58a.16.16,0,0,1-.16-.16v-7.09a.16.16,0,0,1,.16-.16h.58a.16.16,0,0,1,.16.16v3.22h4.15v-3.22a.16.16,0,0,1,.16-.16H353a.16.16,0,0,1,.16.16v7.09a.16.16,0,0,1-.16.16h-.59a.16.16,0,0,1-.16-.16V478.5h-4.15Z"/><path class="cls-1" d="M361.28,479.73h-2.94l-.76,1.89a.24.24,0,0,1-.22.15h-.67a.1.1,0,0,1-.1-.15l3-7.19a.22.22,0,0,1,.21-.14.2.2,0,0,1,.19.14l3.06,7.19a.1.1,0,0,1-.1.15h-.69a.24.24,0,0,1-.22-.15Zm-2.65-.74H361l-1.17-2.89Z"/><path class="cls-1" d="M371,481.72a.22.22,0,0,1-.2.14.23.23,0,0,1-.21-.14l-2.18-5.21-1.63,5.11a.21.21,0,0,1-.2.15h-.66a.11.11,0,0,1-.11-.15l2.33-7.21a.19.19,0,0,1,.17-.12.19.19,0,0,1,.18.12L370.8,480l2.32-5.61a.17.17,0,0,1,.16-.12.18.18,0,0,1,.17.12l2.34,7.21a.11.11,0,0,1-.11.15H375a.23.23,0,0,1-.21-.15l-1.63-5.12Z"/><path class="cls-1" d="M383.72,481.72a.22.22,0,0,1-.2.14.23.23,0,0,1-.21-.14l-2.18-5.21-1.63,5.11a.21.21,0,0,1-.2.15h-.66a.11.11,0,0,1-.11-.15l2.33-7.21a.19.19,0,0,1,.17-.12.2.2,0,0,1,.18.12l2.31,5.61,2.32-5.61a.17.17,0,0,1,.16-.12.18.18,0,0,1,.17.12l2.34,7.21a.11.11,0,0,1-.11.15h-.66a.23.23,0,0,1-.21-.15l-1.63-5.12Z"/><path class="cls-1" d="M392.84,478.5V481h3.74a.16.16,0,0,1,.16.16v.44a.16.16,0,0,1-.16.16H392.1a.16.16,0,0,1-.16-.16v-7.09a.16.16,0,0,1,.16-.16h4.48a.16.16,0,0,1,.16.16V475a.16.16,0,0,1-.16.16h-3.74v2.61h2.89a.16.16,0,0,1,.16.16v.44a.16.16,0,0,1-.16.16Z"/><path class="cls-1" d="M401.31,481.61a.16.16,0,0,1-.16.16h-.56a.16.16,0,0,1-.16-.16v-7.09a.16.16,0,0,1,.16-.16h2.55a2.27,2.27,0,0,1,2.54,2.28,2.42,2.42,0,0,1-1.73,2.22c.39.85.89,1.89,1.3,2.76a.1.1,0,0,1-.1.15h-.6a.23.23,0,0,1-.22-.15l-1.28-2.69h-1.75Zm1.94-3.45a1.49,1.49,0,0,0,1.53-1.52,1.46,1.46,0,0,0-1.58-1.52h-1.89v3Z"/><path class="cls-1" d="M426.57,475.13h-2.05a.16.16,0,0,1-.16-.16v-.44a.16.16,0,0,1,.16-.16h5a.16.16,0,0,1,.16.16V475a.16.16,0,0,1-.16.16h-2.07v6.49a.16.16,0,0,1-.16.16h-.59a.16.16,0,0,1-.16-.16Z"/><path class="cls-1" d="M438,479v-4.45a.16.16,0,0,1,.16-.16h.59a.16.16,0,0,1,.16.16V479a2.86,2.86,0,1,1-5.71,0v-4.45a.16.16,0,0,1,.16-.16h.57a.16.16,0,0,1,.16.16V479a2,2,0,1,0,3.92,0Z"/><path class="cls-1" d="M443.41,476.1c0,1.86,4.26.91,4.26,3.75,0,1.13-1.07,2-2.59,2a5.26,5.26,0,0,1-2.49-.57.18.18,0,0,1-.07-.22c.07-.15.14-.29.21-.42a.16.16,0,0,1,.21-.08,5.21,5.21,0,0,0,2.05.47c.9,0,1.66-.47,1.71-1.19.17-2.11-4.11-1-4.22-3.63-.05-1.34,1-2,2.26-2a6.81,6.81,0,0,1,2.33.49.16.16,0,0,1,.1.21c-.06.17-.11.31-.16.46a.16.16,0,0,1-.21.1,7.14,7.14,0,0,0-2-.39c-.7,0-1.34.26-1.38,1Z"/><path class="cls-1" d="M451.54,481.77a.16.16,0,0,1-.16-.16v-7.09a.16.16,0,0,1,.16-.16h.58a.16.16,0,0,1,.16.16v3.3l3.49-3.35a.42.42,0,0,1,.28-.11h.83a.07.07,0,0,1,.07.07.17.17,0,0,1-.05.12l-3.55,3.37,3.74,3.6a.19.19,0,0,1,.07.16.09.09,0,0,1-.1.1h-.78a.42.42,0,0,1-.28-.11L452.28,478v3.58a.16.16,0,0,1-.16.16Z"/><path class="cls-1" d="M415.51,477.92c.54.58,1.16,1.23,1.7,1.82a5.29,5.29,0,0,0,.42-1.33.15.15,0,0,1,.15-.13h0l.48.07a.18.18,0,0,1,.14.19,4.78,4.78,0,0,1-.66,1.82c.22.22.87.78.87,1a.15.15,0,0,1-.05.12l-.37.34a.15.15,0,0,1-.11,0,.17.17,0,0,1-.12-.05l-.72-.75a2.86,2.86,0,0,1-2.08.87,2.21,2.21,0,0,1-2.36-2.08,2.38,2.38,0,0,1,1.4-2c-.64-.77-.92-1-.92-1.83a1.67,1.67,0,0,1,1.8-1.67,1.58,1.58,0,0,1,1.7,1.63A2.56,2.56,0,0,1,415.51,477.92Zm-.35,3.16a2.09,2.09,0,0,0,1.58-.69l-1.93-2c-.57.38-1.08.78-1.08,1.35A1.35,1.35,0,0,0,415.16,481.08Zm-1-5a2.23,2.23,0,0,0,.82,1.3,1.67,1.67,0,0,0,1-1.43.87.87,0,0,0-.91-.92.93.93,0,0,0-.91,1s0,0,0,.06Z"/><polygon class="cls-1" points="418.53 447.5 420.11 459.17 412.34 447.5 418.53 447.5"/><path class="cls-67" d="M429.07,452.14a12.33,12.33,0,0,1-12.33,12.33,11.9,11.9,0,0,1-10.1-5.25c-2.62-3.54-4.94-10.84-7.57-14.25a12.1,12.1,0,0,0-10-5.16,12.33,12.33,0,0,0-12.33,12.33"/><path class="cls-68" d="M376.7,452.55a12.34,12.34,0,0,0,22.37,6.76c2.63-3.41,4.95-10.7,7.57-14.25a11.9,11.9,0,0,1,10.1-5.25,12.33,12.33,0,0,1,12.33,12.33"/><polygon class="cls-1" points="395.12 447.5 383.44 447.5 382.76 452.73 387.09 452.73 386.52 459.17 389.7 457.66 390.28 452.73 394.42 452.73 395.12 447.5"/><text class="cls-69" transform="translate(117.73 644.62)"><tspan class="cls-70">H</tspan><tspan class="cls-71" x="22.54" y="0">a</tspan><tspan class="cls-72" x="38.31" y="0">l</tspan><tspan class="cls-73" x="44.83" y="0">i</tspan><tspan x="51.21" y="0">s R</tspan></text><text class="cls-74" transform="translate(339.11 628.42)">E<tspan class="cls-75" x="13.87" y="0">X</tspan><tspan class="cls-76" x="26.98" y="0">T</tspan><tspan class="cls-77" x="40.06" y="0">R</tspan><tspan class="cls-78" x="54.22" y="0">A</tspan><tspan class="cls-79" x="68.7" y="0">L</tspan><tspan class="cls-80" x="80.31" y="0">I</tspan><tspan class="cls-81" x="87.66" y="0">G</tspan><tspan class="cls-82" x="103.16" y="0">H</tspan><tspan class="cls-83" x="119.24" y="0">T</tspan></text><text class="cls-84" transform="translate(334.13 650.78)">L<tspan class="cls-85" x="7.61" y="0">I</tspan><tspan class="cls-86" x="12.71" y="0">G</tspan><tspan class="cls-87" x="22.79" y="0">H</tspan><tspan class="cls-88" x="33.24" y="0">T</tspan></text><text class="cls-89" transform="translate(387.31 763.11)"><tspan class="cls-90">#</tspan><tspan class="cls-91" x="4.92" y="0">1</tspan><tspan class="cls-92" x="8.24" y="0">F</tspan><tspan class="cls-93" x="13.45" y="0">0</tspan><tspan class="cls-94" x="19.33" y="0">E</tspan><tspan class="cls-95" x="24.94" y="0">3</tspan><tspan x="29.47" y="0">A</tspan></text><text class="cls-89" transform="translate(421.82 811.11)"><tspan class="cls-96">#</tspan><tspan class="cls-97" x="5.02" y="0">2</tspan><tspan class="cls-92" x="9.6" y="0">F</tspan><tspan class="cls-98" x="14.8" y="0">0</tspan><tspan class="cls-99" x="20.71" y="0">C</tspan><tspan class="cls-100" x="27.18" y="0">4</tspan><tspan x="32.2" y="0">0</tspan></text><text class="cls-89" transform="translate(350.07 811.11)"><tspan class="cls-96">#</tspan><tspan class="cls-101" x="5.02" y="0">2</tspan><tspan class="cls-102" x="9.67" y="0">3</tspan><tspan class="cls-93" x="14.35" y="0">0</tspan><tspan class="cls-103" x="20.23" y="0">D</tspan><tspan class="cls-104" x="27.01" y="0">4</tspan><tspan x="31.96" y="0">3</tspan></text><text class="cls-105" transform="translate(386.14 650.78)"><tspan class="cls-106">B</tspan><tspan x="8" y="0">o</tspan><tspan class="cls-107" x="15.47" y="0">o</tspan><tspan x="22.99" y="0">k</tspan></text><text class="cls-108" transform="translate(426.9 650.78)"><tspan class="cls-109">M</tspan><tspan class="cls-110" x="12.17" y="0">e</tspan><tspan class="cls-111" x="18.84" y="0">d</tspan><tspan class="cls-112" x="26.33" y="0">i</tspan><tspan class="cls-113" x="29.85" y="0">u</tspan><tspan x="36.96" y="0">m</tspan></text><rect class="cls-114" x="299.77" y="816.45" width="211.36" height="7.21" transform="translate(810.89 1640.11) rotate(180)"/><rect class="cls-64" x="299.77" y="770.4" width="211.36" height="5.87" transform="translate(810.89 1546.68) rotate(180)"/><line class="cls-115" x1="412.94" y1="807.89" x2="395.69" y2="807.89"/><polygon class="cls-64" points="411.4 806.87 411.4 808.95 413.57 807.87 411.4 806.87"/><text class="cls-89" transform="translate(202.21 765.11)"><tspan class="cls-90">#</tspan><tspan class="cls-91" x="4.92" y="0">1</tspan><tspan class="cls-92" x="8.24" y="0">F</tspan><tspan class="cls-93" x="13.45" y="0">0</tspan><tspan class="cls-94" x="19.33" y="0">E</tspan><tspan class="cls-95" x="24.94" y="0">3</tspan><tspan x="29.47" y="0">A</tspan></text><text class="cls-89" transform="translate(180.56 811.11)"><tspan class="cls-116">#</tspan><tspan class="cls-117" x="5.26" y="0">D</tspan><tspan class="cls-91" x="11.99" y="0">8</tspan><tspan class="cls-118" x="17.24" y="0">2</tspan><tspan class="cls-119" x="21.63" y="0">4</tspan><tspan class="cls-120" x="26.65" y="0">8</tspan><tspan x="31.82" y="0">A</tspan></text><text class="cls-89" transform="translate(108.5 811.11)"><tspan class="cls-121">#</tspan><tspan class="cls-122" x="5.39" y="0">4</tspan><tspan class="cls-123" x="10.4" y="0">A</tspan><tspan class="cls-124" x="16.02" y="0">1</tspan><tspan class="cls-125" x="19.39" y="0">0</tspan><tspan class="cls-126" x="25.02" y="0">A</tspan><tspan x="31.09" y="0">B</tspan></text><rect class="cls-127" x="168.98" y="770.4" width="104.27" height="5.87" transform="translate(442.23 1546.68) rotate(180)"/><text class="cls-128" transform="translate(95.19 765.11)">#<tspan class="cls-100" x="5.39" y="0">4</tspan><tspan class="cls-129" x="10.41" y="0">8</tspan><tspan class="cls-130" x="15.72" y="0">1</tspan><tspan class="cls-131" x="19.01" y="0">A</tspan><tspan class="cls-132" x="24.97" y="0">8</tspan><tspan class="cls-133" x="30.27" y="0">F</tspan></text><rect class="cls-134" x="61.28" y="770.4" width="104.29" height="5.87" transform="translate(226.85 1546.68) rotate(180)"/><line class="cls-115" x1="170.61" y1="807.89" x2="153.36" y2="807.89"/><polygon class="cls-64" points="169.07 806.87 169.07 808.95 171.24 807.87 169.07 806.87"/><rect class="cls-135" x="61.28" y="816.83" width="211.34" height="6.81" transform="translate(333.9 1640.47) rotate(180)"/><path class="cls-136" d="M122.09,113.62a.52.52,0,0,1-.51.5h-2.45a.52.52,0,0,1-.51-.5V91.09a.52.52,0,0,1,.51-.51h2.45a.52.52,0,0,1,.51.51V101h12.14V91.09a.52.52,0,0,1,.5-.51h2.45a.52.52,0,0,1,.51.51v22.53a.52.52,0,0,1-.51.5h-2.45a.52.52,0,0,1-.5-.5V104H122.09Z"/><path class="cls-136" d="M161.12,107.9h-8.67l-2.29,5.72a.76.76,0,0,1-.71.47h-2.76a.33.33,0,0,1-.3-.47l9.72-22.83a.74.74,0,0,1,.67-.44.69.69,0,0,1,.64.44l9.75,22.83a.33.33,0,0,1-.3.47h-2.76a.76.76,0,0,1-.71-.47Zm-7.46-3h6.25l-3.12-7.77Z"/><path class="cls-136" d="M182.29,98.72l-4.87,14.93a.73.73,0,0,1-.67.47H174a.35.35,0,0,1-.34-.47l7.7-23a.47.47,0,0,1,.44-.34.52.52,0,0,1,.51.34l7.16,16.81,7.16-16.81a.51.51,0,0,1,.47-.34.48.48,0,0,1,.47.34l7.7,23a.35.35,0,0,1-.34.47h-2.72a.73.73,0,0,1-.67-.47l-4.87-14.93L190.1,114a.66.66,0,0,1-1.21,0Z"/><path class="cls-136" d="M220.39,98.72l-4.87,14.93a.73.73,0,0,1-.67.47h-2.72a.35.35,0,0,1-.34-.47l7.7-23a.47.47,0,0,1,.44-.34.52.52,0,0,1,.51.34l7.16,16.81,7.16-16.81a.5.5,0,0,1,.47-.34.48.48,0,0,1,.47.34l7.7,23a.35.35,0,0,1-.34.47h-2.72a.73.73,0,0,1-.67-.47l-4.87-14.93L228.19,114a.66.66,0,0,1-1.21,0Z"/><path class="cls-136" d="M255.49,104v7.06H267a.52.52,0,0,1,.51.51v2a.52.52,0,0,1-.51.5H252.57a.52.52,0,0,1-.51-.5V91.09a.52.52,0,0,1,.51-.51H267a.52.52,0,0,1,.51.51v2a.52.52,0,0,1-.51.51H255.49V101h8.91a.52.52,0,0,1,.51.5v2a.52.52,0,0,1-.51.5Z"/><path class="cls-136" d="M280.43,113.62a.52.52,0,0,1-.51.5h-2.39a.52.52,0,0,1-.51-.5V91.09a.52.52,0,0,1,.51-.51h8.2c6.29,0,8.17,4.37,8.17,7.36a7.5,7.5,0,0,1-5.25,7l4.1,8.67a.33.33,0,0,1-.3.47h-2.69a.73.73,0,0,1-.7-.47l-3.9-8.27h-4.74Zm10-15.67a4.2,4.2,0,0,0-4.54-4.37h-5.48v8.74H286A4.26,4.26,0,0,0,290.45,98Z"/><path class="cls-136" d="M357.84,93.61h-6.32a.52.52,0,0,1-.51-.51v-2a.52.52,0,0,1,.51-.51h16.17a.52.52,0,0,1,.5.51v2a.52.52,0,0,1-.5.51H361.3v20a.52.52,0,0,1-.51.5h-2.45a.52.52,0,0,1-.5-.5Z"/><path class="cls-136" d="M391.69,105.18V91.09a.52.52,0,0,1,.51-.51h2.49a.52.52,0,0,1,.51.51v14.09c0,3.9-2.39,9.18-9.18,9.18s-9.15-5.28-9.15-9.18V91.09a.52.52,0,0,1,.51-.51h2.42a.52.52,0,0,1,.51.51v14.09c0,1.65,1.14,6.19,5.72,6.19S391.69,106.83,391.69,105.18Z"/><path class="cls-136" d="M421.24,108c0,3.6-3.56,6.39-8.34,6.39a17.07,17.07,0,0,1-8.1-1.85.55.55,0,0,1-.23-.67l.87-1.82a.56.56,0,0,1,.7-.27,15.24,15.24,0,0,0,6.49,1.55c2.62,0,5-1.31,5-3.36,0-6.39-13.08-2.82-13.08-11.26,0-4.07,3.06-6.49,7.33-6.49a19.13,19.13,0,0,1,7.6,1.68.51.51,0,0,1,.27.67l-.88,1.92a.52.52,0,0,1-.67.3,19.27,19.27,0,0,0-5.55-1.35c-2.49,0-4.47.5-4.64,3C408,101.85,421.24,98.76,421.24,108Z"/><path class="cls-136" d="M431.26,114.12a.52.52,0,0,1-.51-.5V91.09a.52.52,0,0,1,.51-.51h2.45a.52.52,0,0,1,.51.51v9.68l10-9.82a1.21,1.21,0,0,1,.87-.37h3.16a.3.3,0,0,1,.3.3.66.66,0,0,1-.2.47L437.51,102l11.63,11.53a.55.55,0,0,1,.17.4.22.22,0,0,1-.23.2h-3.3a1.23,1.23,0,0,1-.87-.37L434.22,103.1v10.52a.52.52,0,0,1-.51.5Z"/><path class="cls-136" d="M332.11,112.11a.53.53,0,0,1,0,.74l-1.48,1.28a.57.57,0,0,1-.77-.07l-2.19-2.29a9,9,0,0,1-6.76,2.59c-4.27-.13-7.16-3.29-7.16-6.69s2-4.94,4.2-6.29l-.84-.91a6.32,6.32,0,0,1-1.88-4.67A5.4,5.4,0,0,1,321,90.39a5.17,5.17,0,0,1,5.48,5.31c0,2.76-1.91,4.74-3.9,6.22L327.3,107a18.1,18.1,0,0,0,1.31-3.87.54.54,0,0,1,.64-.44L331,103a.59.59,0,0,1,.47.64,16.63,16.63,0,0,1-1.92,5.72Zm-6.56-2.56-5.48-5.85c-1.62,1.08-3.06,2.29-3.09,3.8a3.94,3.94,0,0,0,4.17,3.9A6,6,0,0,0,325.55,109.55ZM318.32,96c0,1,.47,1.88,2.25,3.73,1.55-1,2.82-2.15,2.82-4a2.48,2.48,0,0,0-2.55-2.62A2.6,2.6,0,0,0,318.32,96Z"/></g></g></svg>