<svg id="logo" xmlns="http://www.w3.org/2000/svg" width="26.25" height="39.953" viewBox="0 0 52.5 79.906">
  <defs>
    <style>
      .cls-1 {
        fill: #9a5dff;
        opacity: 0.5;
      }

      .cls-2 {
        fill: #fff;
        fill-rule: evenodd;
      }
    </style>
  </defs>
  <ellipse class="cls-1" cx="23.5" cy="75.906" rx="22" ry="4"/>
  <path id="D" class="cls-2" d="M33.818,16.683a7.68,7.68,0,0,1,5.876,8.566,80.812,80.812,0,0,1-5.645,20.83,7.788,7.788,0,0,1-9.42,4.513l-7.462-1.977a0.851,0.851,0,0,1-.714-1.054L25.2,15.267a0.863,0.863,0,0,1,1.152-.56ZM17.295,0.192a1.833,1.833,0,0,0-2.3,1.121L0.55,54.6a1.808,1.808,0,0,0,1.428,2.109l19.587,5.189A21.383,21.383,0,0,0,47.2,49.562a80.812,80.812,0,0,0,5.645-20.829A21.084,21.084,0,0,0,36.881,5.38Z" transform="translate(-0.5 -0.094)"/>
</svg>
