<?xml version="1.0" encoding="UTF-8"?>
<svg width="1150px" height="749px" viewBox="0 0 1150 749" version="1.1" xmlns="http://www.w3.org/2000/svg" xmlns:xlink="http://www.w3.org/1999/xlink">
    <!-- Generator: Sketch 51.3 (57544) - http://www.bohemiancoding.com/sketch -->
    <title>Artboard</title>
    <desc>Created with Sketch.</desc>
    <defs>
        <path d="M3.11047421,16.960663 L3.02733132,16.8786461 C-0.767939399,13.1732416 -1.04033977,7.4336665 2.46842064,4.09712277 C5.78333641,0.943847117 10.2963845,0.943847117 15.6859015,6.27533627 C19.994492,1.34300287 25.5933593,0.203028426 28.9034664,3.35189485 C32.4108082,6.68821362 31.7117955,8.06451038 31.7117955,11.1094364 C31.7117955,13.1393871 30.7756858,15.202364 28.9034664,17.2983672 C20.2662354,25.2767618 15.8603805,29.2654717 15.6859015,29.2644969 C15.5115803,29.2654742 11.3197712,25.1641962 3.11047421,16.960663 Z" id="path-1"></path>
        <path d="M11.1605573,0.933547322 C12.8868223,0.328811772 14.7427735,0 16.6755227,0 C25.8851596,0 33.3510455,7.46588583 33.3510455,16.6755227 C33.3510455,25.8851596 25.8851596,33.3510455 16.6755227,33.3510455 C7.46588583,33.3510455 0,25.8851596 0,16.6755227 C0,14.5981249 0.379870608,12.6094505 1.07393841,10.7751731 C1.87851304,11.7015051 3.06500287,12.2872273 4.38829545,12.2872273 C6.81188411,12.2872273 8.77659091,10.3225205 8.77659091,7.89893182 C8.77659091,7.59798147 8.746296,7.30410688 8.68858944,7.02019129 C8.71783593,7.02091084 8.74717116,7.02127273 8.77659091,7.02127273 C10.7154618,7.02127273 12.2872273,5.44950729 12.2872273,3.51063636 C12.2872273,2.49207505 11.8534525,1.57482727 11.1605573,0.933547322 Z" id="path-3"></path>
        <rect id="path-5" x="0.352707855" y="0" width="5.49672619" height="5.74657738" rx="1.725"></rect>
        <filter x="-9.1%" y="-8.7%" width="118.2%" height="134.8%" filterUnits="objectBoundingBox" id="filter-6">
            <feOffset dx="0" dy="1" in="SourceAlpha" result="shadowOffsetOuter1"></feOffset>
            <feComposite in="shadowOffsetOuter1" in2="SourceAlpha" operator="out" result="shadowOffsetOuter1"></feComposite>
            <feColorMatrix values="0 0 0 0 0.937254902   0 0 0 0 0.329411765   0 0 0 0 0.470588235  0 0 0 1 0" type="matrix" in="shadowOffsetOuter1"></feColorMatrix>
        </filter>
        <rect id="path-7" x="0.352706597" y="0" width="5.49672619" height="5.74657738" rx="1.725"></rect>
        <filter x="-9.1%" y="-8.7%" width="118.2%" height="134.8%" filterUnits="objectBoundingBox" id="filter-8">
            <feOffset dx="0" dy="1" in="SourceAlpha" result="shadowOffsetOuter1"></feOffset>
            <feComposite in="shadowOffsetOuter1" in2="SourceAlpha" operator="out" result="shadowOffsetOuter1"></feComposite>
            <feColorMatrix values="0 0 0 0 0.937254902   0 0 0 0 0.329411765   0 0 0 0 0.470588235  0 0 0 1 0" type="matrix" in="shadowOffsetOuter1"></feColorMatrix>
        </filter>
        <radialGradient cx="50%" cy="8.43117775%" fx="50%" fy="8.43117775%" r="90.6829411%" gradientTransform="translate(0.500000,0.084312),scale(1.000000,0.998888),rotate(90.000000),translate(-0.500000,-0.084312)" id="radialGradient-9">
            <stop stop-color="#F661FF" offset="0%"></stop>
            <stop stop-color="#FFF463" offset="100%"></stop>
        </radialGradient>
        <path d="M21.7260891,41.1729443 C27.6874304,41.1729443 32.5200524,36.3382414 32.5200524,30.3743332 C32.5200524,24.410425 27.6874304,19.5757221 21.7260891,19.5757221 C15.7647478,19.5757221 10.9321259,24.410425 10.9321259,30.3743332 C10.9321259,36.3382414 15.7647478,41.1729443 21.7260891,41.1729443 Z" id="path-10"></path>
        <mask id="mask-11" maskContentUnits="userSpaceOnUse" maskUnits="objectBoundingBox" x="0" y="0" width="21.5879265" height="21.5972222" fill="white">
            <use xlink:href="#path-10"></use>
        </mask>
        <path d="M12.6530919,0.663965215 L29.5540757,10.4367911 C30.3784809,10.9134356 30.6606932,11.9679587 30.184554,12.792656 L23.2020846,24.8887629 C22.725739,25.7138177 21.6707456,25.9965023 20.8456908,25.5201568 C20.8384354,25.5159678 20.8312106,25.5117261 20.824017,25.5074319 L3.93104442,15.423286 C3.51792683,15.1766782 3.22657279,14.7687439 3.12732146,14.2979672 L1.3085431,5.67099494 C1.13079108,4.82786759 1.60246235,3.98288681 2.4134158,3.69165836 L11.2066523,0.53384378 C11.6844556,0.362255744 12.2135842,0.409856058 12.6530919,0.663965215 Z" id="path-12"></path>
        <linearGradient x1="34.8977263%" y1="76.1579053%" x2="75%" y2="6.69872981%" id="linearGradient-14">
            <stop stop-color="#FFA864" offset="0%"></stop>
            <stop stop-color="#EF541D" offset="100%"></stop>
        </linearGradient>
        <linearGradient x1="50%" y1="99.4897959%" x2="50%" y2="-2.22044605e-14%" id="linearGradient-15">
            <stop stop-color="#D1C8FF" offset="0%"></stop>
            <stop stop-color="#F0D5FF" offset="100%"></stop>
        </linearGradient>
        <rect id="path-16" x="0" y="0" width="70.2687008" height="70.2989583" rx="35.1343504"></rect>
        <path d="M27.0250522,2.28924678 C25.0655069,0.953783267 19.8992127,0 13.8342052,0 C7.61504566,0 2.34086441,1.00288336 0.500195666,2.39180611 C0.338580578,2.51375682 0.978179987,8.20968279 1.1494008,8.17833827 C6.94508799,7.11735122 11.1323718,6.5868577 13.7112523,6.5868577 C16.2202257,6.5868577 20.4395645,7.08898028 26.3692688,8.09322544 C26.7145482,8.15170142 27.1772391,2.39296472 27.0250522,2.28924678 Z" id="path-18"></path>
        <rect id="path-20" x="0.133366142" y="0.133854167" width="70.2687008" height="70.2989583" rx="35.1343504"></rect>
        <rect id="path-22" x="10.2002953" y="7.93697917" width="70.2687008" height="70.2989583" rx="35.1343504"></rect>
        <rect id="path-24" x="0.133366142" y="0.566927083" width="72.5354331" height="72.5666667" rx="36.2677165"></rect>
    </defs>
    <g id="Artboard" stroke="none" stroke-width="1" fill="none" fill-rule="evenodd">
        <rect fill="#FFFFFF" x="0" y="0" width="1150" height="749"></rect>
        <g id="Group-4" transform="translate(248.000000, 217.000000)">
            <g id="circleIcon/plane" transform="translate(117.438320, 0.000000)">
                <g id="Group-Copy-3" fill="#D3E8FF">
                    <ellipse id="Oval-4" cx="36.728125" cy="36.6782227" rx="36.728125" ry="36.6782227"></ellipse>
                </g>
                <g id="artIcon/plane" transform="translate(15.740625, 19.238542)">
                    <g id="Group-2" transform="translate(2.735357, 1.823571)">
                        <polygon id="Path-13" fill="#98B5FF" points="0.347252144 17.8190934 30.2109365 1.95014612 23.0343922 30.6055833 14.4922315 25.9890588 10.1988637 28.7592411 10.1988637 23.3714694"></polygon>
                        <polygon id="Path-2" fill="#608BFA" points="25.8335081 4.95150298 4.84344113 19.8060119 0.968351847 17.5455432"></polygon>
                        <polygon id="Path-4" fill="#FFFFFF" style="mix-blend-mode: soft-light;" points="22.6585082 29.6013765 28.148218 4.84386161 19.8060119 28.0943973"></polygon>
                        <polygon id="Path-3" fill="#608BFA" points="10.710106 24.2731287 10.710106 29.6057239 15.7154296 26.4797768"></polygon>
                        <polygon id="Path-13" stroke="#31323D" stroke-width="2.15625" stroke-linejoin="round" points="0.347252144 17.8190934 30.2468042 0.861130952 23.0343922 30.6055833"></polygon>
                        <path d="M29.2780319,2.7986756 L10.0547728,23.1634728" id="Line-2" stroke="#31323D" stroke-width="2.15625" stroke-linecap="square"></path>
                        <polyline id="Path-14" stroke="#31323D" stroke-width="2.15625" stroke-linejoin="round" points="10.0912732 23.6272805 10.306556 30.6777902 15.7844332 26.1118699"></polyline>
                    </g>
                </g>
            </g>
            <g id="circleIcon/heart" transform="translate(468.026247, 0.000000)">
                <g id="Group-Copy-3">
                    <ellipse id="Oval-4" fill="#FADFF4" cx="36.728125" cy="36.6782227" rx="36.728125" ry="36.6782227"></ellipse>
                    <ellipse id="Oval-4" fill="#EEBCE3" cx="36.728125" cy="53.7804687" rx="15.740625" ry="3.06067708"></ellipse>
                    <g id="artIcon/heart" transform="translate(19.238542, 21.861979)">
                        <g id="heartFillBig" transform="translate(-0.431250, 1.725000)">
                            <g id="Group-2" transform="translate(1.683929, 0.104558)">
                                <mask id="mask-2" fill="white">
                                    <use xlink:href="#path-1"></use>
                                </mask>
                                <use id="fill" fill="#FFA6D8" xlink:href="#path-1"></use>
                                <path d="M15.9973214,29.6234758 L3.86890042,18.0875018 C-0.981148327,12.339794 -1.08492335,7.19349849 2.51779259,3.59199627 C5.92147321,0.188315646 10.9950669,1.99268156 12.7748928,4.60353423 C9.04372602,2.58570113 5.6667081,4.86641381 5.04235012,7.77649398 C4.35300002,10.9894969 5.92147321,16.7706993 14.4187376,25.8695544 C15.1879896,26.6932681 16.357293,27.9512239 18.087452,26.7896074 C18.087452,27.151674 17.3907418,28.0962968 15.9973214,29.6234758 Z" id="shadow" fill="#EA60AE" fill-rule="nonzero" mask="url(#mask-2)"></path>
                                <path d="M21.1386021,17.6939687 C17.2417039,13.6943141 16.1944098,8.46113986 19.7971257,4.85963764 C23.2008064,1.45595701 29.2075446,-0.786475802 32.5439126,5.80065655 C28.2441832,2.35658453 22.9082026,4.91602897 21.90837,8.07869386 C20.9085374,11.2413588 21.47896,16.9672138 24.8003154,20.7979412 C25.5539109,21.6671101 30.6103335,27.8001261 31.8555577,27.3296166 C31.8555577,27.6916832 28.2832391,24.4798006 21.1386021,17.6939687 Z" id="shadow" fill="#FFE1F2" fill-rule="nonzero" mask="url(#mask-2)" transform="translate(25.064487, 14.462541) scale(-1, 1) translate(-25.064487, -14.462541) "></path>
                            </g>
                            <path d="M16.0352436,28.8186442 C16.9174574,29.5453411 18.1924657,29.5395054 19.0679904,28.8047632 C24.6097497,24.1541082 28.5118171,20.3655033 30.7619374,17.4617952 C34.540748,12.5853614 34.9210741,6.74884286 31.5231687,3.40465685 C28.2940981,0.226469966 21.5185737,1.38486894 18.4485008,5.68539383 L17.5235686,6.98102875 L16.6637077,5.64132414 C13.8843242,1.31091153 7.18336508,0.185584364 3.9124334,3.40480404 C0.455900709,6.80554442 0.750261991,12.0236704 4.66868388,17.4699772 C6.99869037,20.708508 10.7893113,24.4974662 16.0352436,28.8186442 Z" id="outline" stroke="#2A2825" stroke-width="2.15625"></path>
                        </g>
                    </g>
                </g>
            </g>
            <g id="circleIcon/piggy" transform="translate(585.464567, 120.944444)">
                <g id="Group-Copy-3">
                    <ellipse id="Oval-4" fill="#FADFF4" cx="36.728125" cy="36.6782227" rx="36.728125" ry="36.6782227"></ellipse>
                    <ellipse id="Oval-4" fill="#EAB5DE" cx="36.728125" cy="53.7804687" rx="16.6151042" ry="3.06067708"></ellipse>
                </g>
                <g id="Group-3" transform="translate(12.242708, 18.364062)">
                    <g id="Group-5" transform="translate(6.496131, 0.000000)">
                        <g id="Group" transform="translate(0.000000, 3.192543)">
                            <path d="M30.5874566,8.37673831 L29.2894859,1.27893019 C26.5582865,3.52858256 24.6055841,5.00159513 23.4313788,5.69796789 C21.5237955,5.16368138 19.5157465,4.89394323 17.4548922,4.89394323 C8.90628674,4.89394323 2.90377782,9.34711984 2.17713959,15.3431092 C1.91974267,15.2846975 1.43884694,17.3744231 1.61689588,17.6493071 C2.09291162,20.8413918 4.54484462,24.0421574 8.11322507,26.00241 L8.88460098,29.3155002 C9.05913858,30.1710711 9.27627198,31.3979663 10.1700821,31.3979663 L12.0534461,31.3979663 C13.0001971,31.3979663 13.7900212,30.6781221 13.8499576,29.758954 L14.5623717,28.3286842 C15.3786437,28.3750714 19.431781,28.3733517 20.2638946,28.3286842 L21.0868518,29.896396 C21.1485574,30.8155197 21.2123787,31.3764654 22.1573694,31.3764654 L24.5403145,31.3979355 C25.43593,31.3979355 26.8773287,30.7519669 27.050097,29.896396 L27.5857582,26.4125814 C30.08923,25.0879924 31.9761609,23.6004049 33.0887749,21.5249208 L34.2352482,20.861171 C35.3071524,20.861171 37.1479647,20.0966417 37.1479647,19.1568903 C37.63095,18.0827417 37.8574132,17.2720072 37.8273543,16.7246869 C37.7964415,16.161818 37.4785207,15.3072686 36.8735919,14.1610388 C36.8718318,13.2212874 35.3036276,12.4567581 34.2317233,12.4567581 C32.4827247,10.3586718 31.2679691,8.99866515 30.5874566,8.37673831 Z" id="Path" fill="#FFA6D8"></path>
                            <path d="M3.33828952,19.6688409 C5.7595014,23.3805919 7.55906251,25.4266634 8.73697284,25.8070552 C9.56158161,26.0733526 9.56158161,30.5020092 10.0723599,31.0993139 C10.4128788,31.4975171 11.6976793,31.4975171 13.9267615,31.0993139 L14.6688299,27.8763197 C18.0392149,28.0228143 19.9616786,28.0228143 20.436221,27.8763197 C20.9107634,27.7298251 21.2828229,28.8041565 21.5523996,31.0993139 L27.2711215,30.46151 C27.4832684,28.7380498 27.8476008,27.3266812 28.3641185,26.2274042 C31.2804724,24.1248967 33.7232923,20.893412 33.7232923,20.0020775 C29.5011976,24.1248967 26.5602917,25.5334036 17.9892857,25.5334036 C12.2752817,25.5334036 7.39161631,23.5785494 3.33828952,19.6688409 Z" id="Path-53" fill="#EA60AE"></path>
                            <path d="M3.02305606,12.8523442 C9.59174511,4.73852434 16.9645207,4.43619891 23.4900454,5.5416138 C23.4900454,5.5416138 25.5042089,4.12693097 29.5325358,1.29756533 L31.8286231,8.82695539 C33.2298358,12.0573443 33.8630671,13.5808002 33.7283171,13.3973229 C32.4439336,11.648491 30.7475866,10.2769127 28.5428146,9.14250232 C28.5428146,7.74660884 28.5428146,5.94131571 28.5428146,3.72662292 L28.5429596,3.72662292 C28.5429596,3.58363914 28.4270483,3.46772788 28.2840646,3.46772788 C28.237964,3.46772788 28.1926996,3.48003756 28.1529483,3.50338499 C26.9100844,4.23336682 26.2123874,4.69478382 26.0598574,4.88763597 C25.9019969,5.08722756 25.7232276,5.82685032 25.5235492,7.10650424 L25.5235958,7.10651151 C25.5020467,7.24461006 25.3747383,7.34064713 25.2360319,7.32343979 C21.3797403,6.8450442 18.0576343,6.75398864 15.2697141,7.05027309 C10.9979053,7.50425685 5.17303592,10.4394899 3.02305606,12.8523442 Z" id="Path-54" fill="#FFEAF6"></path>
                            <path d="M34.3766602,12.4567229 C33.2325256,10.0283273 31.9836516,9.07258241 30.4190927,7.94079495 L30.4190723,2.82885628 C30.4190723,1.87617634 29.6467726,1.10387666 28.6940927,1.10387666 C28.4545202,1.10387666 28.2175743,1.15378018 27.9983527,1.25040751 C25.5827636,2.31513768 24.0893756,3.52964958 23.5181888,4.89394323 C21.3823606,4.5359045 20.5862793,4.89394323 18.5127636,4.89394323 C9.91163779,4.89394323 2.08490937,11.1154864 2.08490937,16.257333 C2.08490937,21.3991796 4.90557004,24.0087334 8.49587368,25.968986 L9.29940529,29.896396 C9.4750152,30.7519669 10.2838961,31.3979663 11.1831976,31.3979663 L13.0586311,31.3979663 C14.0111986,31.3979663 14.8058752,30.6781221 14.8661798,29.758954 L14.9619679,28.3415647 C15.7832548,28.3879519 20.4076083,28.3862322 21.2448342,28.3415647 L21.3423933,29.7486188 C21.4044779,30.6677425 22.1991455,31.3893459 23.149942,31.3893459 L25.6417169,31.3979355 C26.5428348,31.3979355 27.3534504,30.7519366 27.5272802,29.8963657 L28.3077889,26.0892445 C30.8266414,24.7646555 32.7453134,23.651012 34.3519753,20.861171 C34.3519753,20.861171 35.617405,20.861171 36.0379843,20.861171 C37.5945142,20.861171 38.165265,18.6312204 38.165265,16.6779008 C38.165265,14.7245811 37.587873,12.4567581 36.0379843,12.4567581 C35.2871599,12.4567581 34.7333852,12.4567464 34.3766602,12.4567229 Z" id="Path" stroke="#31323D" stroke-width="2.15625"></path>
                            <path d="M27.7431254,11.3682292 C26.7732743,11.3682292 25.9845238,12.1573237 25.9845238,13.127598 C25.9845238,14.0978722 26.7732743,14.8869668 27.7431254,14.8869668 C28.7145087,14.8869668 29.5032592,14.0978722 29.5032592,13.127598 C29.5047952,12.1573237 28.7145087,11.3682292 27.7431254,11.3682292 Z" id="Fill-1" fill="#31323D"></path>
                        </g>
                        <g id="Group-2" transform="translate(11.867932, 0.874479)">
                            <path d="M5.30088583,8.73700152 C7.64082898,8.73700152 9.54300487,6.80490969 9.54300487,4.42834324 C9.54300487,2.05324908 7.63922271,0.119684952 5.30088583,0.119684952 C2.96254895,0.119684952 1.06033387,2.05177678 1.06033387,4.42834324 C1.06033387,6.8034374 2.96258813,8.73700152 5.30088583,8.73700152 Z" id="Fill-4" fill="#FCDF35"></path>
                            <path d="M2.00185947,3.28079135 C3.04201144,1.26987356 5.71732844,0.182965978 7.33370583,0.983789062 C8.95008321,1.78461215 8.67168457,3.48190447 8.67168457,4.38670006 C7.87790685,2.55282762 4.91607837,0.983789063 2.00185947,3.28079135 Z" id="Path-2" fill="#FFFEFA"></path>
                            <path d="M5.30088583,8.73700152 C7.64082898,8.73700152 9.54300487,6.80490969 9.54300487,4.42834324 C9.54300487,2.05324908 7.63922271,0.119684952 5.30088583,0.119684952 C2.96254895,0.119684952 1.06033387,2.05177678 1.06033387,4.42834324 C1.06033387,6.8034374 2.96258813,8.73700152 5.30088583,8.73700152 Z" id="Fill-4" stroke="#31323D" stroke-width="2.15625"></path>
                        </g>
                    </g>
                    <path d="M8.59577154,18.7488622 C8.59577154,20.229216 7.71511929,21.6575797 6.34837672,21.7073395 C4.98163415,21.7570993 2.7910089,20.5971585 2.7910089,18.0848505 C2.7910089,17.1098739 3.26518943,15.740625 4.08820057,15.740625 C4.91121171,15.740625 5.43551387,16.9127989 5.43551387,18.0848505 C5.43551387,20.2743275 3.7314956,21.7570993 2.25164962,21.7570993 C0.994200994,21.7570993 0.24797102,20.7378198 0.0520778684,19.0445956" id="Path-55" stroke="#31323D" stroke-width="2.15625" stroke-linecap="round"></path>
                    <path d="M18.3640625,13.8131744 C20.7465851,12.0981467 25.7465521,11.3715744 29.3437291,13.8131744" id="Path-56" stroke="#31323D" stroke-width="1.725" stroke-linecap="round"></path>
                </g>
            </g>
            <g id="circleIcon/calendar" transform="translate(350.587927, 238.433333)">
                <g id="Group-Copy-3">
                    <ellipse id="Oval-4" fill="#D3F2CF" cx="36.728125" cy="36.6782227" rx="36.728125" ry="36.6782227"></ellipse>
                    <ellipse id="Oval-4" fill="#9BCFA5" cx="36.5834743" cy="53.4111712" rx="20.8461368" ry="3.56585866"></ellipse>
                </g>
                <g id="Group" transform="translate(19.238542, 21.861979)">
                    <rect id="Rectangle-23" fill="#FBFFF8" x="0" y="0" width="36.728125" height="30.0502841" rx="3.45"></rect>
                    <path d="M3.45,0 L33.278125,0 C35.1835074,-3.50013066e-16 36.728125,1.54461761 36.728125,3.45 L36.728125,9.18203125 L0,9.18203125 L0,3.45 C-2.33342044e-16,1.54461761 1.54461761,-9.40761437e-17 3.45,-4.4408921e-16 Z" id="Rectangle-23" fill="#C1FF86"></path>
                    <rect id="Rectangle" fill="#8FC65A" x="1.74895833" y="1.74895833" width="2.18619792" height="7.43307292"></rect>
                    <path d="M1.74895833,8.74479167 L3.93515625,8.74479167 L3.93515625,27.0027701 C3.93515625,27.4791157 4.32131065,27.8652701 4.79765625,27.8652701 L35.4744771,27.8652701 L35.4744771,30.0502841 L3.93515625,30.0502841 L1.74895833,30.0502841 L1.74895833,8.74479167 Z" id="Rectangle" fill="#C1D3B0"></path>
                    <rect id="Rectangle-25" fill="#FFFFFF" x="33.6674479" y="1.74895833" width="1.74895833" height="27.9833333"></rect>
                    <g id="outline">
                        <rect id="Rectangle-23" stroke="#353A36" stroke-width="2.15625" x="1.078125" y="1.078125" width="34.571875" height="29.5634943" rx="3.45"></rect>
                        <path d="M7.69541667,0 L7.69541667,4.59144262" id="Line-12" stroke="#353A36" stroke-width="2.15625" stroke-linecap="round"></path>
                        <path d="M28.4205729,0 L28.4205729,4.59144262" id="Line-12-Copy" stroke="#353A36" stroke-width="2.15625" stroke-linecap="round"></path>
                        <path d="M1.66946023,8.76466619 L35.0586648,8.76466619" id="Line-11" stroke="#353A36" stroke-width="2.15625" stroke-linecap="square"></path>
                        <rect id="Rectangle-24" fill="#353A36" x="11.6862216" y="13.3556818" width="2.08682528" height="2.08682528"></rect>
                        <rect id="Rectangle-24-Copy-5" fill="#353A36" x="11.6862216" y="18.3640625" width="2.08682528" height="2.08682528"></rect>
                        <rect id="Rectangle-24-Copy-9" fill="#353A36" x="11.6862216" y="23.3724432" width="2.08682528" height="2.08682528"></rect>
                        <rect id="Rectangle-24-Copy-4" fill="#353A36" x="5.8431108" y="18.3640625" width="2.08682528" height="2.08682528"></rect>
                        <rect id="Rectangle-24-Copy-4" fill="#353A36" x="5.8431108" y="23.3724432" width="2.08682528" height="2.08682528"></rect>
                        <rect id="Rectangle-24-Copy" fill="#353A36" x="17.5293324" y="13.3556818" width="2.08682528" height="2.08682528"></rect>
                        <rect id="Rectangle-24-Copy-6" fill="#353A36" x="17.5293324" y="18.3640625" width="2.08682528" height="2.08682528"></rect>
                        <rect id="Rectangle-24-Copy-10" fill="#353A36" x="17.5293324" y="23.3724432" width="2.08682528" height="2.08682528"></rect>
                        <rect id="Rectangle-24-Copy-2" fill="#353A36" x="22.9550781" y="13.3556818" width="2.08682528" height="2.08682528"></rect>
                        <rect id="Rectangle-24-Copy-7" fill="#353A36" x="22.9550781" y="18.3640625" width="2.08682528" height="2.08682528"></rect>
                        <rect id="Rectangle-24-Copy-11" fill="#353A36" x="22.9550781" y="23.3724432" width="2.08682528" height="2.08682528"></rect>
                        <rect id="Rectangle-24-Copy-3" fill="#353A36" x="28.3808239" y="13.3556818" width="2.08682528" height="2.08682528"></rect>
                        <rect id="Rectangle-24-Copy-8" fill="#353A36" x="28.3808239" y="18.3640625" width="2.08682528" height="2.08682528"></rect>
                    </g>
                </g>
            </g>
            <g id="circleIcon/cookie" transform="translate(585.464567, 0.000000)">
                <g id="Group-Copy-3">
                    <ellipse id="Oval-4" fill="#FCF4DE" cx="36.728125" cy="36.6782227" rx="36.728125" ry="36.6782227"></ellipse>
                    <ellipse id="Oval-4" fill="#E0C393" cx="36.728125" cy="53.7804687" rx="17.9268229" ry="3.06067708"></ellipse>
                </g>
                <g id="cookie" transform="translate(15.303385, 20.113021)">
                    <g id="Group" transform="translate(5.265955, 0.000000)">
                        <mask id="mask-4" fill="white">
                            <use xlink:href="#path-3"></use>
                        </mask>
                        <use id="Combined-Shape" fill="#E09F59" xlink:href="#path-3"></use>
                        <path d="M17.8457348,32.5465246 C27.0553717,32.5465246 34.5212576,25.0806388 34.5212576,15.8710019 C34.5212576,6.661365 27.0553717,-4.48314663 17.8457348,-4.48314663 C8.63609795,-4.48314663 1.17021212,6.661365 1.17021212,15.8710019 C1.17021212,25.0806388 8.63609795,32.5465246 17.8457348,32.5465246 Z" id="Oval-6" stroke="#000000" stroke-width="3.45" style="mix-blend-mode: soft-light;" mask="url(#mask-4)"></path>
                        <path d="M12.1087154,1.4681619 C13.8472929,0.932083522 15.6602784,0.688736787 17.4790139,0.804520833 C26.6886508,1.39082325 32.979426,8.27040666 32.979426,17.4800436 C32.979426,26.6896805 26.6886508,34.1555663 17.4790139,34.1555663 C8.26937701,34.1555663 -0.792819142,27.2598946 -0.792819142,18.0502577 C-0.792819142,15.520203 -0.108894454,13.0344668 1.07412526,10.7717983 C1.95955986,11.8380513 3.29525264,12.5170164 4.78952622,12.5170164 C7.45547374,12.5170164 9.61665122,11.0037089 9.61665122,8.33776136 C9.61665122,8.16482678 9.6075573,7.99401619 9.5898216,7.82578173 C11.5248782,7.82108079 13.2894857,6.41553 13.2894857,4.01278336 C13.2894857,2.77855088 12.8238716,1.96647752 12.1087154,1.4681619 Z" id="Combined-Shape" stroke="#FFF0BE" stroke-width="2.15625" stroke-linejoin="round" mask="url(#mask-4)"></path>
                    </g>
                    <path d="M16.4265118,0.933547322 C18.1527769,0.328811772 20.008728,0 21.9414773,0 C31.1511142,0 38.617,7.46588583 38.617,16.6755227 C38.617,25.8851596 31.1511142,33.3510455 21.9414773,33.3510455 C12.7318404,33.3510455 5.26595455,25.8851596 5.26595455,16.6755227 C5.26595455,14.5981249 5.64582515,12.6094505 6.33989295,10.7751731 C7.14446758,11.7015051 8.33095742,12.2872273 9.65425,12.2872273 C12.0778387,12.2872273 14.0425455,10.3225205 14.0425455,7.89893182 C14.0425455,7.59798147 14.0122505,7.30410688 13.954544,7.02019129 C13.9837905,7.02091084 14.0131257,7.02127273 14.0425455,7.02127273 C15.9814164,7.02127273 17.5531818,5.44950729 17.5531818,3.51063636 C17.5531818,2.49207505 17.119407,1.57482727 16.4265118,0.933547322 Z" id="Combined-Shape" stroke="#5C411A" stroke-width="2.15625" stroke-linejoin="round"></path>
                    <g id="deets" transform="translate(0.000000, 10.531909)">
                        <circle id="Oval" fill="#5C411A" cx="14.0425455" cy="7.02127273" r="1.75531818"></circle>
                        <circle id="Oval-Copy" fill="#5C411A" cx="27.2074318" cy="2.63297727" r="2.63297727"></circle>
                        <circle id="Oval-Copy-2" fill="#5C411A" cx="20.6249886" cy="17.1143523" r="1.31648864"></circle>
                        <circle id="Oval-Copy-3" fill="#5C411A" cx="18.8696705" cy="3.07180682" r="1.31648864"></circle>
                        <circle id="Oval-Copy-4" fill="#5C411A" cx="29.4015795" cy="11.8483977" r="1.31648864"></circle>
                        <path d="M38.9034582,26.9433175 C39.6305348,26.9433175 40.2199468,26.8230036 40.2199468,26.3022149 C40.2199468,25.7814263 39.6305348,25.2997423 38.9034582,25.2997423 C38.1763816,25.2997423 37.5869695,25.778105 37.5869695,26.3022149 C37.5869695,26.8263248 38.1763816,26.9433175 38.9034582,26.9433175 Z" id="Oval-Copy-5" fill="#5C411A"></path>
                        <path d="M13.9820923,30.3805168 C15.0393198,30.3805168 15.896372,30.201778 15.896372,29.4280921 C15.896372,28.6544062 15.0393198,27.9388144 13.9820923,27.9388144 C12.9248647,27.9388144 12.0678125,28.6494722 12.0678125,29.4280921 C12.0678125,30.2067121 12.9248647,30.3805168 13.9820923,30.3805168 Z" id="Oval-Copy-6" fill="#5C411A"></path>
                        <path d="M1.47545021,24.4085498 C2.29031886,24.4085498 2.95090043,24.2707851 2.95090043,23.674459 C2.95090043,23.0781329 2.29031886,22.5265833 1.47545021,22.5265833 C0.660581561,22.5265833 5.23066239e-17,23.0743299 0,23.674459 C0,24.2745881 0.660581561,24.4085498 1.47545021,24.4085498 Z" id="Oval-Copy-7" fill="#C4631F"></path>
                        <path d="M35.0848755,28.1582292 C35.781571,28.1582292 36.3463543,28.0404432 36.3463543,27.530597 C36.3463543,27.0207507 35.781571,26.5491875 35.0848755,26.5491875 C34.38818,26.5491875 33.8233967,27.0174993 33.8233967,27.530597 C33.8233967,28.0436947 34.38818,28.1582292 35.0848755,28.1582292 Z" id="Oval-Copy-8" fill="#C4631F"></path>
                    </g>
                </g>
            </g>
            <g id="circleIcon/tools" transform="translate(234.876640, 238.433333)">
                <g id="Group-Copy-3">
                    <ellipse id="Oval-4" fill="#FADFE6" cx="36.728125" cy="36.6782227" rx="36.728125" ry="36.6782227"></ellipse>
                    <path d="M19.3148846,48.9708333 L55.8903455,48.9708333 L58.4913253,52.6087481 C58.9068919,53.1899889 58.7725864,53.998061 58.1913455,54.4136276 C57.9718335,54.5705709 57.7087414,54.6549479 57.4388956,54.6549479 L17.7663344,54.6549479 C17.051816,54.6549479 16.4725844,54.0757163 16.4725844,53.3611979 C16.4725844,53.0913522 16.5569614,52.8282601 16.7139047,52.6087481 L19.3148846,48.9708333 Z" id="Rectangle-11" fill="#E29EA9"></path>
                </g>
                <g id="kit-copy-2" transform="translate(18.364062, 20.987500)">
                    <g id="case" transform="translate(0.000000, 5.677311)">
                        <g id="fill">
                            <polygon id="Rectangle-17" fill="#D33A6D" points="3.34581925 0.804073886 35.0506068 0.804073886 37.6147307 5.17737245 0.67503655 5.17737245"></polygon>
                            <path d="M0.67503655,4.94833084 L37.8020468,4.94833084 L37.2637204,22.0243995 C37.2050162,23.8865339 35.678493,25.3656916 33.8154335,25.3656916 L4.8528601,25.3656916 C3.00473559,25.3656916 1.48486423,23.9093485 1.40600247,22.0629074 L0.67503655,4.94833084 Z" id="Rectangle-17" fill="#F67E90"></path>
                            <path d="M2.12158078,6.98414448 L2.68044762,23.5813333 L35.7966357,23.5813333 L36.3555026,6.98414448 L2.12158078,6.98414448 Z" id="Rectangle-17" stroke="#EF5478" stroke-width="3.45"></path>
                        </g>
                        <g id="outline" stroke="#4F2E43" stroke-width="2.15625">
                            <path d="M3.93178612,1.078125 C3.69605568,1.078125 3.47898779,1.20635776 3.36522518,1.41282062 L1.38565266,5.00546167 C1.32949685,5.10737643 1.30187111,5.22255161 1.30568641,5.33885095 L1.91044417,23.77328 C1.92188735,24.1220949 2.20796877,24.3989451 2.55697135,24.3989451 L35.920112,24.3989451 C36.2691146,24.3989451 36.555196,24.1220949 36.5666392,23.77328 L37.1713969,5.33885095 C37.1752122,5.22255161 37.1475865,5.10737643 37.0914307,5.00546167 L35.1118582,1.41282062 C34.9980955,1.20635776 34.7810277,1.078125 34.5452972,1.078125 L3.93178612,1.078125 Z" id="Rectangle-17"></path>
                        </g>
                        <path d="M1.60904167,11.1551585 L36.8680417,11.1551585" id="Line-8" stroke="#4F2E43" stroke-width="2.15625" stroke-linecap="square"></path>
                        <g id="hinge" transform="translate(26.842346, 9.202220)">
                            <g id="Group-3" transform="translate(1.374182, 0.000000)">
                                <rect id="Rectangle-19" fill="#DB276A" x="0.352706597" y="1.04156715" width="3.52706597" height="3.68268385" rx="1.725"></rect>
                                <rect id="Rectangle-19" fill="#EAE4E9" x="0" y="1.43664435" width="3.52706597" height="3.68268385"></rect>
                                <polygon id="Rectangle-19" fill="#FFFFFF" points="0.805128585 0.472223486 3.51931607 0.472223486 3.28449408 3.23483577 2.6626937 1.43245453"></polygon>
                            </g>
                            <g id="Group-2">
                                <g id="Rectangle-19">
                                    <use fill="black" fill-opacity="1" filter="url(#filter-6)" xlink:href="#path-5"></use>
                                    <rect stroke="#4F2E43" stroke-width="2.15625" stroke-linejoin="square" fill="#FFFFFF" fill-rule="evenodd" x="1.43083286" y="1.078125" width="3.34047619" height="3.59032738" rx="1.6702381"></rect>
                                </g>
                            </g>
                        </g>
                        <g id="hinge" transform="translate(6.412847, 9.202220)">
                            <g id="Group-3">
                                <rect id="Rectangle-19" fill="#DB276A" x="0.352706597" y="1.04156715" width="3.52706597" height="3.68268385" rx="1.725"></rect>
                                <rect id="Rectangle-19" fill="#EAE4E9" x="0.352706597" y="0" width="4.95447731" height="4.30993304" rx="1.725"></rect>
                            </g>
                            <g id="Group-2">
                                <g id="Rectangle-19">
                                    <use fill="black" fill-opacity="1" filter="url(#filter-8)" xlink:href="#path-7"></use>
                                    <rect stroke="#4F2E43" stroke-width="2.15625" stroke-linejoin="square" fill="#FFFFFF" fill-rule="evenodd" x="1.4308316" y="1.078125" width="3.34047619" height="3.59032738" rx="1.6702381"></rect>
                                </g>
                            </g>
                        </g>
                        <path d="M1.03063616,5.11034917 L37.4464472,5.11034917" id="Line-9" stroke="#4F2E43" stroke-width="2.15625"></path>
                    </g>
                    <g id="handle" transform="translate(10.884964, 0.409187)" stroke="#4F2E43" stroke-linecap="round" stroke-width="2.15625">
                        <path d="M1.53063762,7.43796911 L1.53063762,4.37648999 C1.53063762,3.4237988 2.30294643,2.65148999 3.25563762,2.65148999 L13.6695302,2.65148999 C14.6222214,2.65148999 15.3945302,3.4237988 15.3945302,4.37648999 L15.3945302,7.43796911" id="Path-2"></path>
                    </g>
                </g>
            </g>
            <g id="circleIcon/cam" transform="translate(0.000000, 120.944444)">
                <g id="Group-Copy-3" stroke-width="1" fill-rule="evenodd">
                    <ellipse id="Oval-4" fill="#FFD9FF" cx="36.728125" cy="36.6782227" rx="36.728125" ry="36.6782227"></ellipse>
                    <path d="M27.7441538,47.6591146 C29.3388316,45.5910174 32.760379,44.1611979 36.723988,44.1611979 C40.687597,44.1611979 44.1091444,45.5910174 45.7038221,47.6591146 L55.7435793,47.6591146 L58.4182947,51.2809059 C58.842766,51.855676 58.7209248,52.6657212 58.1461547,53.0901925 C57.9236081,53.2545446 57.6542376,53.3432292 57.3775814,53.3432292 L45.3307333,53.3432292 C43.6127511,55.1729061 40.401713,56.4039062 36.723988,56.4039062 C33.046263,56.4039062 29.8352249,55.1729061 28.1172426,53.3432292 L16.3297902,53.3432292 C15.6152718,53.3432292 15.0360402,52.7639976 15.0360402,52.0494792 C15.0360402,51.772823 15.1247248,51.5034525 15.2890769,51.2809059 L17.9637924,47.6591146 L27.7441538,47.6591146 Z" id="Combined-Shape" fill="#EC9FE8"></path>
                </g>
                <g id="Group" stroke-width="1" fill-rule="evenodd" transform="translate(16.615104, 21.861979)">
                    <g id="kit-copy-2">
                        <g id="case" transform="translate(0.000000, 0.450001)">
                            <g id="fill" transform="translate(0.000000, 1.828456)">
                                <polygon id="Rectangle-17" fill="#E459B2" points="3.49790194 0.840622699 36.6438162 0.840622699 39.3244912 5.41270756 0.705720029 5.41270756"></polygon>
                                <path d="M0.705720029,5.17325497 L39.5203216,5.17325497 L38.9527379,23.1773855 C38.8940337,25.0395199 37.3675105,26.5186776 35.504451,26.5186776 L4.92318123,26.5186776 C3.07505672,26.5186776 1.55518536,25.0623345 1.4763236,23.2158933 L0.705720029,5.17325497 Z" id="Rectangle-17" fill="#FD71E0"></path>
                                <polygon id="Rectangle" fill="#FFF5FE" points="1.82845644 5.48536932 12.4485184 5.48536932 14.365925 3.68320195 25.3748405 3.40202786 27.5411833 5.48536932 38.3975852 5.48536932 38.3975852 12.342081 1.82845644 12.342081"></polygon>
                                <path d="M2.59514929,20.4430936 C2.59514929,21.4523883 4.0372241,22.8997995 4.70260605,22.9185137 C5.11992937,22.930251 33.2974595,22.8908378 35.0239135,22.9105444 C36.7503674,22.930251 37.5460763,21.9310565 37.5460763,20.1130208 C37.5460763,20.3330693 37.5460763,21.979919 37.5460763,25.0535697 L2.59514929,25.4581912 C2.59514929,21.8947443 2.59514929,20.2230451 2.59514929,20.4430936 Z" id="Rectangle-17" fill="#D344B2"></path>
                                <polygon id="Rectangle-2" fill="#FFF5FE" points="36.6766806 5.48536932 38.3975852 5.48536932 38.3975852 25.5983902 36.1120147 25.5983902"></polygon>
                                <polygon id="Path-2" fill="#FFF5FE" points="34.3839401 1.62330626 36.360046 5.3841237 38.4194394 5.3841237 36.360046 1.62330626"></polygon>
                            </g>
                            <g id="outline" transform="translate(0.000000, 0.079498)" stroke="#322C20">
                                <path d="M4.03440476,2.99635993 C3.75868671,2.99635993 3.50365996,3.14261433 3.36441707,3.38058882 L1.29267659,6.92131808 C1.21872446,7.04770672 1.18203033,7.19243549 1.18683166,7.33879106 L1.82148571,26.684529 C1.83521752,27.1031069 2.17851523,27.4353271 2.59731833,27.4353271 L37.6287233,27.4353271 C38.0475264,27.4353271 38.3908241,27.1031069 38.404556,26.684529 L39.03921,7.33879106 C39.0440113,7.19243549 39.0073172,7.04770672 38.9333651,6.92131808 L36.8616246,3.38058882 C36.7223817,3.14261433 36.467355,2.99635993 36.1916369,2.99635993 L28.2801838,2.99635993 C27.9219693,2.99635993 27.5717983,2.89014197 27.2739484,2.69113677 L26.0822643,1.89492601 C25.8836976,1.76225587 25.6502503,1.6914439 25.4114406,1.6914439 L15.0359294,1.6914439 C14.7850997,1.6914439 14.5404955,1.76955599 14.33609,1.91493118 L13.2868948,2.661129 C12.9802866,2.87919179 12.6133803,2.99635993 12.2371357,2.99635993 L4.03440476,2.99635993 Z" id="Rectangle-17" stroke-width="1.8975"></path>
                                <path d="M1.8217338,7.77805312 L10.3841458,7.77805312 C10.5785937,7.77805312 10.7673364,7.71234747 10.9197484,7.5915976 L13.05274,5.90171502 C13.4337701,5.59984035 13.9056268,5.43557621 14.3917464,5.43557621 L25.5597952,5.43557621 C25.994239,5.43557621 26.418551,5.56680919 26.7771363,5.81208056 L29.4311979,7.62745138 C29.574632,7.72555993 29.7443568,7.77805312 29.9181343,7.77805312 L38.5260125,7.77805312" id="Line-9" stroke-width="1.725"></path>
                                <path d="M0.454937376,13.1839243 L38.5260125,13.1839243" id="Line-9-Copy" stroke-width="1.725"></path>
                            </g>
                        </g>
                        <circle id="Oval-21" fill="#322C20" cx="35.635026" cy="11.1496094" r="1.09309896"></circle>
                    </g>
                    <g id="lens" transform="translate(7.393324, 8.307552)">
                        <ellipse id="Oval-20" fill="#FFF5FE" cx="12.6060267" cy="12.2427083" rx="10.5879613" ry="10.9309896"></ellipse>
                        <ellipse id="Oval-20" fill="url(#radialGradient-9)" cx="12.7749978" cy="12.2427083" rx="6.98805376" ry="6.99583333"></ellipse>
                        <path d="M12.719697,5.72386364 C14.9111509,5.72386364 17.0118672,6.89313387 18.2122418,8.76357954 M19.2417829,12.3108135 C19.2656686,12.5409752 19.7276996,12.071949 19.7276996,12.3108135" id="Path-57" stroke="#FFFFFF" stroke-width="2.5875" stroke-linecap="round"></path>
                        <g id="outline" transform="translate(0.000000, 0.440297)" stroke="#322C20">
                            <circle id="Oval-20" stroke-width="1.8975" cx="12.719697" cy="11.5639168" r="11.1297348"></circle>
                            <ellipse id="Oval-20" stroke-width="1.5525" cx="12.719697" cy="11.8076653" rx="7.43307292" ry="7.43679824"></ellipse>
                        </g>
                    </g>
                    <g id="flash" transform="translate(5.246875, 1.748958)" fill="#FFFFFF" stroke="#322C20" stroke-linecap="round" stroke-linejoin="round" stroke-width="1.5525">
                        <polygon id="Path-2-Copy" points="0 3.93515625 0 0.874479167 3.93515625 0.874479167 3.93515625 3.93515625"></polygon>
                    </g>
                </g>
                <path d="M30.6268394,24.831707 L27.6551901,29.5104694" id="Line-10" stroke="#322C20" stroke-width="1.29375" stroke-linecap="square"></path>
                <path d="M43.3138327,25.2518669 L45.8315898,29.4790855" id="Line-10" stroke="#322C20" stroke-width="1.29375" stroke-linecap="square"></path>
            </g>
            <g id="img/cookieCircle-Copy-4" transform="translate(117.438320, 120.944444)">
                <ellipse id="Oval-4" fill="#FFF7B7" cx="36.2677165" cy="36.2340353" rx="36.2677165" ry="36.2340353"></ellipse>
                <ellipse id="Oval-4" fill="#E2CC76" cx="36.2677165" cy="57.4486111" rx="16.6766732" ry="3.02361111"></ellipse>
                <g id="Group-2" transform="translate(17.270341, 12.094444)">
                    <ellipse id="Path" fill="#FFEB58" cx="16.4068241" cy="30.2361111" rx="14.67979" ry="14.6861111"></ellipse>
                    <path d="M16.4068241,44.9222222 C23.5184277,44.9222222 29.7370437,40.27121 31.0866142,34.5555556 C31.0866142,34.5555556 1.93941786,34.5555556 1.93941786,34.5555556 C3.1269788,40.4426308 9.15237948,44.9222222 16.4068241,44.9222222 Z" id="Path" fill="#F2BF3C"></path>
                    <rect id="Rectangle" fill="#F2BF3C" x="1.72703412" y="31.1" width="5.18110236" height="1.72777778"></rect>
                    <ellipse id="Path" fill="#FFFF7C" cx="21.5879265" cy="30.2361111" rx="14.67979" ry="14.6861111"></ellipse>
                    <ellipse id="Path" fill="#FFFFFF" cx="21.5879265" cy="30.2361111" rx="11.2257218" ry="11.2305556"></ellipse>
                    <ellipse id="Path" fill="#DDDCD3" cx="21.5879265" cy="30.2361111" rx="11.2257218" ry="11.2305556"></ellipse>
                    <ellipse id="Path" fill="#FFFFFF" cx="21.5879265" cy="31.1" rx="9.93044619" ry="9.93472222"></ellipse>
                    <g id="Group">
                        <path d="M21.600154,44.0611111 L21.600154,45.7861111 L13.9219237,45.7861111 C7.79984313,45.7861111 0.86351706,38.824139 0.86351706,30.2361111 C0.86351706,21.6480833 7.96118036,14.6861111 13.4271,14.6861111 L21.600154,14.6861111 L21.600154,16.4111111 L13.4271,16.4111111 C8.46107526,16.4111111 2.58851706,23.135144 2.58851706,30.2361111 C2.58851706,37.4902036 8.42468004,44.0611111 13.9219237,44.0611111 L21.600154,44.0611111 Z M21.600154,45.7861111 L13.9219237,45.7861111 C7.79984313,45.7861111 0.86351706,38.824139 0.86351706,30.2361111 C0.86351706,21.6480833 7.96118036,14.6861111 13.4271,14.6861111 L21.600154,14.6861111 L21.600154,16.4111111 L13.4271,16.4111111 C8.46107526,16.4111111 2.58851706,23.135144 2.58851706,30.2361111 C2.58851706,37.4902036 8.42468004,44.0611111 13.9219237,44.0611111 L21.600154,44.0611111 L21.600154,45.7861111 Z" id="Oval-8" fill="#462613" fill-rule="nonzero"></path>
                        <ellipse id="Path" stroke="#462613" stroke-width="1.725" cx="21.5879265" cy="30.2361111" rx="14.67979" ry="14.6861111"></ellipse>
                        <ellipse id="Path" stroke="#462613" stroke-width="1.725" cx="21.5879265" cy="30.2361111" rx="14.67979" ry="14.6861111"></ellipse>
                        <ellipse id="Path" stroke="#462613" stroke-width="1.29375" cx="21.7260891" cy="30.3743332" rx="11.4408383" ry="11.4454861"></ellipse>
                        <use id="Path" stroke="#EF52D1" mask="url(#mask-11)" stroke-width="3.45" stroke-dasharray="1.725,6.899999999999999" xlink:href="#path-10"></use>
                        <path d="M9.00936133,19.4248454 C9.00936133,20.3790707 8.24902881,21.1526232 7.31111111,21.1526232 C6.37319341,21.1526232 5.61286089,20.3790707 5.61286089,19.4248454 L5.61286089,13.3803917 C5.61286089,5.21038889 11.2276906,-0.0459373538 18.3605535,0.000282010014 C25.4632517,0.0463059126 31.0866142,5.33491224 31.0866142,13.3803917 L31.0866142,18.6042986 C31.0866142,19.5585239 30.3262817,17.6891909 29.388364,17.6891909 C28.4504463,17.6891909 27.6901137,16.9156384 27.6901137,15.9614131 L27.6901137,13.3803917 C27.6901137,7.30330236 23.6355324,3.49008834 18.3389215,3.45576748 C13.0343595,3.4213951 9.00936133,7.18939957 9.00936133,13.3803917 L9.00936133,19.4248454 Z" id="Path-58" fill="#462613" fill-rule="nonzero"></path>
                    </g>
                </g>
                <g id="knob" transform="translate(32.813648, 34.555556)">
                    <path d="M6.76781504,14.0813891 C7.04829649,14.0813891 7.58234466,14.0813891 8.36995955,14.0813891 C11.4179613,11.9571534 12.9419621,9.89821823 12.9419621,7.90458342 C12.9419621,5.83300362 11.2611818,3.77406841 7.89962104,1.72777778 C7.34765373,1.72777778 6.97038506,1.72777778 6.76781504,1.72777778 C3.35792778,1.72777778 0.593667979,4.49322786 0.593667979,7.90458342 C0.593667979,11.315939 3.35792778,14.0813891 6.76781504,14.0813891 Z" id="Path" fill="#462613"></path>
                    <ellipse id="Path" fill="#FFE047" cx="8.20341207" cy="7.88298611" rx="5.28904199" ry="5.29131944"></ellipse>
                    <path d="M14.9229076,8.82811805 C14.9229076,5.90580301 12.5549228,3.5367986 9.63386556,3.5367986 C6.71280833,3.5367986 4.34482357,5.90580301 4.34482357,8.82811805 C4.34482357,8.82811805 14.9229076,8.82811805 14.9229076,8.82811805 Z" id="Path" fill="#FFFF7C" transform="translate(9.633866, 6.182458) rotate(-315.000000) translate(-9.633866, -6.182458) "></path>
                    <path d="M11.2257218,4.31944444 L9.49868766,6.04722222" id="Line-13" stroke="#462613" stroke-width="1.725" stroke-linecap="round"></path>
                    <g id="Group-3" transform="translate(2.727034, 1.727778)" stroke="#462613" stroke-width="1.725">
                        <ellipse id="Path" cx="5.49796596" cy="6.17680564" rx="5.31063" ry="5.31291675"></ellipse>
                    </g>
                </g>
            </g>
            <g id="circleIcon/game" transform="translate(468.026247, 120.944444)">
                <g id="Group-Copy-3">
                    <ellipse id="Oval-4" fill="#ECE4FF" cx="36.728125" cy="36.6782227" rx="36.728125" ry="36.6782227"></ellipse>
                    <ellipse id="Oval-5" fill="#CABAFF" cx="36.2908854" cy="54.8735677" rx="24.9226562" ry="2.40481771"></ellipse>
                </g>
                <g id="artIcon/game" transform="translate(12.242708, 11.368229)">
                    <g id="controller" transform="translate(0.000000, 4.947805)">
                        <g id="fill" transform="translate(0.000000, 7.421707)" fill="#C9C1FF">
                            <path d="M14.1116928,1.37496067 C9.42109592,2.41847658 6.50535602,4.28644773 3.32823227,11.9047495 C0.15110853,19.5230513 -0.572867651,28.1600427 3.78272729,30.2002123 C6.0929927,31.2823454 7.81669545,30.0574531 10.4893222,27.6704417 C14.5546703,24.0395448 16.8850007,19.7265936 24.5153865,19.7265936 C32.1457723,19.7265936 34.0864427,24.7155621 37.2927505,27.6704417 C40.4990584,30.6253214 43.5389509,32.0161196 46.6223821,29.6161636 C49.7058133,27.2162076 49.2975259,19.6889037 45.9610727,11.9047495 C42.6246195,4.12059538 39.3135032,2.44176069 35.2298565,1.37496067 C31.1462098,0.308160647 18.8022896,0.331444763 14.1116928,1.37496067 Z" id="Path-61"></path>
                        </g>
                        <g id="light" transform="translate(0.000000, 7.421707)">
                            <path d="M3.92858848,11.3569396 C2.32665848,14.5311569 0.568647253,28.0956437 3.92858848,30.0178104 C6.12222376,31.2727527 7.54883028,30.4681596 10.221457,28.0811482 C14.2868051,24.4502513 17.1086386,19.5755986 24.7390244,19.5755986 C34.669665,19.5755986 37.6241846,29.4401138 40.5509211,30.0178104 C40.7499828,30.0571023 44.2614188,30.8052315 45.1429817,30.4270069 C47.337008,29.4856847 47.6119013,25.8805468 46.4308182,26.9808475 C45.2497352,28.0811482 43.3483522,28.236406 41.9317706,27.4966465 C39.3353844,26.1407758 37.0203197,22.8707232 35.8650926,21.5762827 C34.0795764,19.5755986 30.2264855,17.2504263 24.7390244,17.2504263 C19.2515633,17.2504263 16.825031,18.5772753 15.2172783,19.5755986 C12.3233077,21.3725904 12.0471378,21.5762827 8.58346302,24.2864923 C7.10207884,25.4456259 5.65301386,24.0033383 5.22442776,21.5762827 C4.74408754,18.8561468 5.02330146,10.3884798 8.17070902,6.30662469 C8.82453035,5.45868749 5.53051848,8.18272223 3.92858848,11.3569396 Z" id="Path-61" fill="#9788FB"></path>
                            <path d="M32.6348312,1.60084922 C20.3596908,0.835606451 12.4783922,3.95848654 9.30126842,11.5767883 C6.12414468,19.1950901 9.09013096,28.8900607 8.91031458,28.0487027 C8.61048769,26.6458172 8.81217591,24.3423796 9.30126842,22.080455 C10.4524545,16.7565216 11.5797833,9.98469682 18.0031115,5.46722775 C20.1057943,3.98842984 26.6575422,4.51142926 29.940929,4.51142926 C33.2243157,4.51142926 36.7485175,3.93775347 39.1472464,4.02975514 C42.643246,4.16384192 45.7626403,5.66080337 47.4456309,7.20351951 C46.6482261,4.70893075 46.3560299,3.21355273 41.5803802,2.26764324 C39.6389286,1.88310131 32.0542852,1.60084922 32.6348312,1.60084922 Z" id="Path-61" fill="#FFFFFF" transform="translate(27.635096, 14.794194) scale(-1, 1) translate(-27.635096, -14.794194) "></path>
                        </g>
                        <g id="outlines">
                            <path d="M35.6487131,32.7643662 C35.5702232,32.6624036 36.0949988,33.3453846 36.2289246,33.5182583 C36.8771905,34.3550504 37.3502916,34.9239058 37.8639901,35.4628728 C40.3258539,38.0458345 43.8651657,38.701647 46.3732593,37.1663498 C49.1936148,35.4399054 49.1739798,26.7179694 45.9638334,19.3042147 C43.0389769,12.5493301 39.830463,9.74996603 35.2517462,8.98661936 C34.1123689,8.79666661 32.7202788,8.72811246 31.0114054,8.75437122 C30.1028723,8.76833185 29.235415,8.80341183 27.8681867,8.87368012 C25.7641703,8.98181543 25.4428876,8.99614439 24.7261762,9.00068906 C23.9558367,9.00557378 23.5098483,8.98717051 21.326559,8.87745511 C20.0252039,8.81205896 19.2114569,8.77913098 18.3549119,8.76387372 C16.6117638,8.73282378 15.2073004,8.79770094 14.0613866,8.98688651 C9.21220637,9.78746584 6.29635177,12.4302615 3.40513209,19.2929156 C0.210954039,26.8746775 0.265801465,35.2257384 3.44408879,37.1656533 C5.57558313,38.4666425 7.45805639,37.9099564 10.2952916,35.4015465 C10.8834543,34.8815498 11.4482952,34.3239261 12.1571566,33.5779282 C12.4016101,33.320668 13.2300564,32.4359338 13.2755047,32.3876836 C16.965472,28.4702271 19.6324861,26.9585711 24.7196134,26.9585711 C29.9726532,26.9585711 32.3944726,28.5367906 35.648799,32.7644778 Z" id="Path-61" stroke="#2D2734" stroke-width="2.07"></path>
                            <path d="M23.3771296,0 C26.6510262,0.498752889 26.3084666,3.36779505 24.6563305,4.10839073 C23.0041945,4.84898642 23.0711334,7.94671942 25.0632107,8.34051203" id="Path-62" stroke="#2D2734" stroke-width="2.277" stroke-linecap="round"></path>
                            <path d="M10.114477,9.2390079 C10.114477,8.24968852 9.84706486,7.73003915 11.1743111,7.45711565 C12.5015573,7.18419215 15.3236543,6.7823189 16.5017175,6.67692437 C17.6797806,6.57152985 18.0445846,6.78360235 18.1745913,7.98265382 C18.304598,9.18170529 10.114477,10.2283273 10.114477,9.2390079 Z" id="Path-63" fill="#2D2734" transform="translate(14.134270, 8.142838) rotate(-1.000000) translate(-14.134270, -8.142838) "></path>
                            <path d="M29.9056966,9.2390079 C29.9056966,8.24968852 29.6382844,7.73003915 30.9655306,7.45711565 C32.2927769,7.18419215 35.1148738,6.7823189 36.292937,6.67692437 C37.4710001,6.57152985 37.8358041,6.78360235 37.9658108,7.98265382 C38.0958175,9.18170529 29.9056966,10.2283273 29.9056966,9.2390079 Z" id="Path-63" fill="#2D2734" transform="translate(33.925489, 8.142838) scale(-1, 1) rotate(-1.000000) translate(-33.925489, -8.142838) "></path>
                        </g>
                    </g>
                    <g id="btns" transform="translate(7.421707, 17.317317)">
                        <g id="fill" transform="translate(19.791220, 2.473902)">
                            <circle id="Oval-23" fill="#F87C2F" transform="translate(11.721602, 7.491934) rotate(2.000000) translate(-11.721602, -7.491934) " cx="11.7216016" cy="7.4919342" r="2.2932616"></circle>
                            <circle id="Oval-23" fill="#F1BE09" transform="translate(3.179797, 3.472692) rotate(2.000000) translate(-3.179797, -3.472692) " cx="3.17979672" cy="3.47269242" r="2.47390244"></circle>
                            <circle id="Oval-23" fill="#FFB462" transform="translate(11.565524, 6.124876) rotate(2.000000) translate(-11.565524, -6.124876) " cx="11.5655235" cy="6.12487606" r="1.85542683"></circle>
                            <circle id="Oval-23" fill="#FFEB79" transform="translate(4.211848, 2.003360) rotate(2.000000) translate(-4.211848, -2.003360) " cx="4.2118477" cy="2.00335987" r="1.85542683"></circle>
                        </g>
                        <g id="outlines">
                            <circle id="Oval-23" stroke="#2D2734" stroke-width="2.07" transform="translate(30.893607, 9.741741) rotate(2.000000) translate(-30.893607, -9.741741) " cx="30.893607" cy="9.74174066" r="2.68014518"></circle>
                            <circle id="Oval-23" stroke="#2D2734" stroke-width="2.07" transform="translate(23.461963, 5.716273) rotate(2.000000) translate(-23.461963, -5.716273) " cx="23.4619629" cy="5.71627296" r="2.68014518"></circle>
                            <path d="M8.96789634,5.25704268 L11.3345122,5.25704268 C11.9061269,5.25704268 12.3695122,5.72042797 12.3695122,6.29204268 L12.3695122,7.93289634 C12.3695122,8.50451106 11.9061269,8.96789634 11.3345122,8.96789634 L8.96789634,8.96789634 L8.96789634,11.3345122 C8.96789634,11.9061269 8.50451106,12.3695122 7.93289634,12.3695122 L6.29204268,12.3695122 C5.72042797,12.3695122 5.25704268,11.9061269 5.25704268,11.3345122 L5.25704268,8.96789634 L2.89042683,8.96789634 C2.31881211,8.96789634 1.85542683,8.50451106 1.85542683,7.93289634 L1.85542683,6.29204268 C1.85542683,5.72042797 2.31881211,5.25704268 2.89042683,5.25704268 L5.25704268,5.25704268 L5.25704268,2.89042683 C5.25704268,2.31881211 5.72042797,1.85542683 6.29204268,1.85542683 L7.93289634,1.85542683 C8.50451106,1.85542683 8.96789634,2.31881211 8.96789634,2.89042683 L8.96789634,5.25704268 Z" id="Combined-Shape" fill="#2D2734"></path>
                        </g>
                    </g>
                </g>
            </g>
            <g id="circleIcon/trash" transform="translate(234.876640, 120.944444)">
                <g id="Group-Copy-4">
                    <ellipse id="Oval-4" fill="#D0F3F6" cx="36.728125" cy="36.6782227" rx="36.728125" ry="36.6782227"></ellipse>
                    <ellipse id="Oval-4" fill="#98C6CE" cx="36.5834743" cy="56.9090878" rx="17.0622063" ry="3.56585866"></ellipse>
                </g>
                <g id="Group-8" transform="translate(24.048177, 19.238542)">
                    <g id="Group-2" transform="translate(2.001928, 14.879926)">
                        <path d="M22.1087159,0 L22.1087159,19.2249703 C22.1087159,20.817619 17.1595112,22.1087159 11.0543579,22.1087159 C4.94920463,22.1087159 0,20.817619 0,19.2249703 L0,0" id="Combined-Shape-Copy" fill="#FFFFFF"></path>
                        <g id="Group-5" transform="translate(3.953817, 5.830728)" stroke="#A2A9B2" stroke-linecap="round" stroke-width="1.8975">
                            <path d="M1.71750498,1.00494163 L1.71750498,11.0543579" id="Line"></path>
                            <path d="M7.08351078,1.81507068 L7.08351078,11.864487" id="Line-Copy"></path>
                            <path d="M12.550827,1.00494163 L12.550827,11.0543579" id="Line-Copy-2"></path>
                        </g>
                        <path d="M22.1087159,0.459849084 C22.1087159,2.05249777 17.1595112,3.34359463 11.0543579,3.34359463 C4.94920463,3.34359463 0,2.05249777 0,0.459849084" id="Combined-Shape-Copy-3" stroke="#C2C5C8" stroke-width="2.15625"></path>
                        <path d="M22.1087159,0 L22.1087159,19.2249703 C22.1087159,20.817619 17.1595112,22.1087159 11.0543579,22.1087159 C4.94920463,22.1087159 0,20.817619 0,19.2249703 L0,0" id="Combined-Shape" stroke="#25282A" stroke-width="2.15625"></path>
                        <path d="M20.5813568,20.6814942 C20.5813568,22.0007324 16.3035413,23.0701863 11.0265884,23.0701863 C5.7496355,23.0701863 1.47181995,22.0007324 1.47181995,20.6814942" id="Combined-Shape-Copy-2" stroke="#25282A" stroke-width="2.15625"></path>
                    </g>
                    <g id="Group" transform="translate(1.108204, 8.819493)">
                        <path d="M24.1185991,0 L24.1185991,4.66789666 C24.1185991,6.33293847 18.7194668,7.68272155 12.0592996,7.68272155 C5.39913232,7.68272155 0,6.33293847 0,4.66789666 L0,0" id="Oval-8-Copy-5" fill="#DAE0E0"></path>
                        <path d="M24.1185991,1.42884648 L24.1185991,4.66789666 C24.1185991,6.33293847 18.7194668,7.68272155 12.0592996,7.68272155 C5.39913232,7.68272155 0,6.33293847 0,4.66789666 L0,1.42884648" id="Oval-8-Copy-3" stroke="#25282A" stroke-width="2.15625"></path>
                    </g>
                    <g id="Group-3" transform="translate(0.056405, 5.932941)">
                        <ellipse id="Oval-8-Copy-7" fill="#25282A" cx="13.6832974" cy="3.70562866" rx="12.0592996" ry="3.01482489"></ellipse>
                        <path d="M25.1737239,4.39055007 C25.1737239,2.72550826 19.7745916,1.37572518 13.1144243,1.37572518 C6.45425708,1.37572518 1.05512476,2.72550826 1.05512476,4.39055007" id="Oval-8-Copy-6" stroke="#25282A" stroke-width="2.15625"></path>
                        <path d="M0.981912399,3.38560844 C2.1110252,5.0046538 6.4713069,6.68783235 13.1314741,6.68783235 C19.7916414,6.68783235 25.1907737,5.33804927 25.1907737,3.67300746" id="Oval-8-Copy-6" stroke="#25282A" stroke-width="2.15625"></path>
                    </g>
                    <g id="Group-7" transform="translate(16.931301, 10.269890) rotate(15.000000) translate(-16.931301, -10.269890) translate(3.867060, 3.235299)">
                        <g id="Group-4" transform="translate(0.706107, 0.150108)">
                            <path d="M0,6.77782065 C0,8.59335663 5.39653659,10.0651393 12.0535018,10.0651393 C18.7104671,10.0651393 24.1070036,8.59335663 24.1070036,6.77782065 L24.1070036,4.13115374 L0,4.13115374 L0,6.77782065 Z" id="Oval-8-Copy-8" stroke="#25282A" stroke-width="2.15625" fill="#EDF0F0"></path>
                            <ellipse id="Oval-8-Copy-4" fill="#FFFFFF" cx="12.0535018" cy="3.28731868" rx="12.0535018" ry="3.28731868"></ellipse>
                            <path d="M0.493182969,3.19945578 C0.493182969,5.01499176 5.55284603,6.48677446 12.2098113,6.48677446 C18.8667765,6.48677446 23.7510288,5.01499176 23.7510288,3.19945578" id="Oval-8-Copy-9" stroke="#25282A" stroke-width="1.725"></path>
                            <path d="M24.1070036,3.28731868 C24.1070036,1.47178271 18.7104671,0 12.0535018,0 C5.39653659,0 0,1.47178271 0,3.28731868" id="Oval-8-Copy-2" stroke="#25282A" stroke-width="2.15625"></path>
                        </g>
                        <g id="Group-6" transform="translate(8.766183, 2.191546)" stroke-linecap="round">
                            <path d="M2.49312123,1.62342861 L5.95825937,1.62342861" id="Line-9" stroke="#C2C8C8" stroke-width="0.8625"></path>
                            <path d="M2.00538444,1.11891046 C2.7358997,0.833120745 3.46641496,0.690225887 4.19693023,0.690225887 C4.92744549,0.690225887 5.65796075,0.833120745 6.38847601,1.11891046" id="Line-9" stroke="#2A2825" stroke-width="1.2075"></path>
                        </g>
                    </g>
                </g>
            </g>
            <g id="circleIcon/wallet" transform="translate(350.587927, 120.944444)">
                <g id="Group-Copy-3" stroke-width="1" fill="#FFCFF6">
                    <ellipse id="Oval-4" cx="36.728125" cy="36.6782227" rx="36.728125" ry="36.6782227"></ellipse>
                </g>
                <g id="img/wallet-copy" stroke-width="1" transform="translate(16.177865, 17.489583)">
                    <g id="Group" transform="translate(0.816573, 0.074234)">
                        <g id="fill" transform="translate(0.009587, 0.000000)">
                            <path d="M37.9643683,2.24430358 L37.9643683,23.8978004 C37.9643683,25.1749024 37.0325996,26.2609973 35.7703508,26.4552069 L4.02720098,31.3392073 C2.6147844,31.5565217 1.29362641,30.5877 1.07631202,29.1752834 C1.05627891,29.0450798 1.04621848,28.9135365 1.04621848,28.7818009 L1.04621848,7.9618818 C1.04621848,6.69345147 1.96569771,5.61203532 3.21761967,5.4080576 C12.4017359,3.91167431 21.5858522,2.41529102 30.7699685,0.918907728 C33.6441147,0.392500005 34.1379252,0.307861548 35.6771885,0.536582002 C36.7033641,0.689062305 37.4657573,1.25830283 37.9643683,2.24430358 Z" id="Path-16" fill="#C551B8"></path>
                            <path d="M37.8326219,2.39267579 L37.8326219,27.0849539 C37.8326219,28.3653666 36.8961421,29.4532328 35.6299711,29.6436737 L7.03181603,33.9450348 C5.61867407,34.1575811 4.3007933,33.1843061 4.08824694,31.7711641 C4.07005283,31.6501982 4.06045978,31.5280944 4.05953995,31.4057714 L3.90811729,11.2688155 C3.89845765,9.98422748 4.8327218,8.88706393 6.10243388,8.69189524 L34.5289486,4.32242767 L37.8326219,2.39267579 Z" id="Path-16" fill="#F99CE9"></path>
                            <polygon id="Path-36" points="18.4529928 18.7358228 21.6168431 12.8811758 24.755399 17.7619854 21.6041959 20.1623436"></polygon>
                            <path d="M2.02028856,16.3876324 L4.27842996,17.3133858 L4.27842996,24.1048637 L0.947489677,22.4268928 C0.511094285,22.2070573 0.235788643,21.7601068 0.235788643,21.2714673 L0.235788643,17.5846928 C0.235788643,16.8701744 0.815020248,16.2909428 1.52953864,16.2909428 C1.69785412,16.2909428 1.86455229,16.3237864 2.02028856,16.3876324 Z" id="Path-18" fill="#E89FDB"></path>
                            <path d="M4.27842996,17.3133858 L9.6578235,16.5345353 C10.3649686,16.4321519 11.0212211,16.9224082 11.1236044,17.6295533 C11.1324933,17.6909471 11.136955,17.7529007 11.136955,17.8149347 L11.136955,21.8400862 C11.136955,22.4704062 10.6827047,23.0089885 10.0614149,23.1153012 L4.27842996,24.1048637 L4.27842996,17.3133858 Z" id="Path-18" fill="#FFC9F5"></path>
                        </g>
                        <g id="lighting" transform="translate(3.575100, 3.765962)">
                            <path d="M34.6450773,0 L34.6450773,23.2576574 C32.942727,25.058648 31.8487399,25.8419455 31.363116,25.6075497 C32.4436444,24.870896 32.5463273,23.5187106 32.5463273,22.2446552 C32.5463273,21.3952848 32.5463273,14.2301353 32.5463273,0.749206538 L34.6450773,0 Z" id="Path-16" fill="#FFF0FC"></path>
                            <path d="M2.82646968,20.0226325 C2.82646968,23.4164671 2.82646968,25.6617322 2.82646968,26.7584279 C2.82646968,28.4034715 4.10683015,29.3238273 6.34884444,28.8814481 C7.84352062,28.5865286 6.75860377,29.0430981 3.09409386,30.2511564 L0.546790212,28.088883 L0.546790212,20.4723812 L2.82646968,20.0226325 Z" id="Path-3" fill="#D55EC5"></path>
                            <path d="M3.03686943,13.3150844 C3.03551937,11.0419527 3.03551937,9.3649177 3.03686943,8.28397947 C3.03889451,6.66257212 3.75297353,5.95229692 5.78921193,5.60879057 C5.21543487,5.19892528 3.38188992,5.43626044 0.288577099,6.32079604 L0.288577099,13.7376839 L3.03686943,13.3150844 Z" id="Path-4" fill="#D55EC5"></path>
                            <polygon id="Path-18" fill="#E89FDB" points="0 13.6288879 1.86331909 13.323804 1.86331909 20.1319742 7.75945851e-15 20.4203658"></polygon>
                            <path d="M6.10207735,12.8047274 L7.03373689,12.5857925 L7.03373689,18.9941316 L6.28920222,19.2791545 C6.28920222,17.0020074 6.28920222,15.3658774 6.28920222,14.3707644 C6.28920222,13.8380836 5.61552757,13.6138617 3.96418074,13.8742583 C2.86328285,14.0478561 3.57591505,13.6913458 6.10207735,12.8047274 Z" id="Path-18" fill="#FFFFFF"></path>
                        </g>
                        <g id="outlines">
                            <path d="M1.07378208,22.7488964 L1.07378208,29.2701997 C1.07378208,30.5133533 2.08155722,31.5211284 3.32471087,31.5211284 C3.43516301,31.5211284 3.54546536,31.5129987 3.65472396,31.4968051" id="Line" stroke="#3C2233" stroke-width="1.725" stroke-linecap="round"></path>
                            <path d="M2.1916027,16.429713 L3.93193474,17.2938939 L9.67978623,16.5182994 C10.3878872,16.4227508 11.0393739,16.9193226 11.1349225,17.6274236 C11.1426603,17.6847675 11.1465423,17.742566 11.1465423,17.8004296 L11.1465423,21.8280197 C11.1465423,22.4636488 10.6848028,23.0051229 10.0571538,23.1055272 L3.93193474,24.0853718 L0.989146941,22.4546986 C0.577733925,22.2267242 0.32246033,21.7934253 0.32246033,21.3230712 L0.32246033,17.5884678 C0.32246033,16.8739494 0.901691935,16.2947178 1.61621033,16.2947178 C1.81585455,16.2947178 2.01279018,16.3409217 2.1916027,16.429713 Z" id="Path-18" stroke="#3C2233" stroke-width="1.725" stroke-linecap="round" stroke-linejoin="round"></path>
                            <ellipse id="Oval-7" fill="#3C2233" cx="7.52273567" cy="20.1788206" rx="1.2209184" ry="1.19698337"></ellipse>
                            <path d="M3.73921507,11.9573014 L3.73921507,29.8949951 C3.73921507,32.0385503 5.47690989,33.7762451 7.62046507,33.7762451 C7.80972853,33.7762451 7.9987385,33.7624014 8.18598215,33.7348248 L34.6771139,29.8333008 C36.5816973,29.5528003 37.9928468,27.9185993 37.9928468,25.9934712 L37.9928468,1.80910726" id="Path-5" stroke="#3C2233" stroke-width="1.725"></path>
                            <path d="M1.08121745,15.9520998 C1.08121745,12.2004476 1.08121745,9.73598764 1.08121745,8.55872006 C1.08121745,6.79281869 2.36885386,6.04667617 3.72320347,5.79478518 C5.07755308,5.54289419 31.4587622,0.711278305 34.2425947,0.256975063 C38.5503611,-0.446024205 39.8247778,3.14287851 34.3919052,4.04517782 C30.9262434,4.62075992 21.9566197,6.22998723 6.36426719,9.1499158 C5.44339964,9.32236364 3.72320347,9.53974221 3.72320347,12.2159559" id="Path-59" stroke="#3C2233" stroke-width="1.725" stroke-linecap="round"></path>
                            <g id="Group-2" transform="translate(17.984729, 12.168474)" fill="#3C2233" stroke="#3C2233" stroke-linecap="round" stroke-linejoin="round" stroke-width="0.8625">
                                <polygon id="Path-38" points="0.881920163 8.65984756 4.04021369 10.1563787 7.32126924 7.66484992 4.1015947 12.5800239"></polygon>
                                <polygon id="Path-36" points="0.963409509 6.49311451 3.98537268 0.67765116 7.26581562 5.51927707 4.11461256 7.91963526"></polygon>
                            </g>
                        </g>
                    </g>
                </g>
                <path d="M37.1653646,58.1057243 C46.8245947,56.7753375 54.6549479,54.5509406 54.6549479,53.1373947 C54.6549479,51.7238488 46.8245947,51.6564351 37.1653646,52.9868218 C27.5061344,54.3172086 19.6757812,56.5416055 19.6757812,57.9551514 C19.6757812,59.3686973 27.5061344,59.4361111 37.1653646,58.1057243 Z" id="Oval-22" fill="#EDA2E6"></path>
            </g>
            <g id="circleIcon/check" transform="translate(468.026247, 238.433333)">
                <ellipse id="Oval-4" fill="#BFF8C6" cx="36.728125" cy="36.6782227" rx="36.728125" ry="36.6782227"></ellipse>
                <ellipse id="Oval-5" fill="#92CEA2" cx="36.728125" cy="53.3432292" rx="13.9916667" ry="1.74895833"></ellipse>
                <g id="Group-Copy-3" stroke-width="1" transform="translate(19.238542, 22.736458)">
                    <path d="M3.58996711,18.9674244 L15.4070042,29.8148134 L35.0543172,5.52302632 C35.438916,3.17532723 35.438916,1.83052785 35.0543172,1.48862819 C34.6697185,1.14672852 33.4497955,1.40704368 31.3945482,2.26957368 L15.4070042,22.8588926 L7.12276226,14.9042605 C5.13186154,14.4852737 3.95426316,14.4852737 3.58996711,14.9042605 C3.22567105,15.3232473 3.22567105,16.6776352 3.58996711,18.9674244 Z" id="Path-60" fill="#5EE49A"></path>
                    <path d="M29.8141413,3.71736585 C33.3696497,-0.699924464 38.0506722,1.88358372 34.5124475,6.472314 C32.7914663,8.70425775 26.8620392,16.2818759 16.7185515,29.2123872 C16.6391363,29.3136226 16.5545174,29.4106656 16.4650367,29.5031242 C15.0375935,30.9780722 13.6314237,29.2904779 12.156456,27.8630399 C7.19066742,23.0571885 4.0632821,19.9421926 2.27262329,18.1868314 C0.45929021,16.4092429 1.89766851,15.6495526 3.3924497,14.1216733 C4.84542619,12.6365244 4.4935258,12.5190131 6.13697017,14.1216733 C7.72942918,15.6746135 12.537029,18.4880844 15.8755544,21.6736758 C24.3737303,10.6576147 28.13514,5.80332242 29.8141413,3.71736585 Z M2.60621462,18.1868314 C4.39250714,19.9379124 6.77441754,21.6161483 11.7369366,26.4188354 C12.3442764,27.0066042 13.4513527,28.703028 14.5687461,28.703028 C14.6282978,28.703028 15.516161,28.5249151 15.5632099,28.494656 C16.0729314,28.1668331 16.5219542,27.7794182 16.8897666,27.2681221 C25.7467504,14.9560276 30.9822896,7.61400147 32.7114133,5.08547211 C34.5124475,2.4517868 32.2110454,0.82561982 30.4971146,2.95497203 C28.7838867,5.08345109 24.8072005,10.6929741 15.8755544,22.2735992 C15.4792978,22.787379 15.3636853,22.1213924 14.8940697,21.6736758 C11.1011774,18.0576529 7.87329505,15.8149091 6.13697017,14.1216733 C5.37879205,13.3823104 2.9021417,14.9873638 2.27262329,15.6308212 C1.62836853,16.2893414 1.64774162,17.2472519 2.60621462,18.1868314 Z" id="Path-60" fill="#CFFFE5" fill-rule="nonzero"></path>
                    <path d="M13.8082737,28.8677136 L2.6234375,17.466606 L3.07135188,15.5385246 C5.44058694,14.645916 6.27983928,14.374109 5.58910891,14.7231036 C4.55301336,15.2465955 4.96826286,16.9191223 5.95888379,18.0470211 C6.61929775,18.7989536 9.83198391,22.4058511 15.5969423,28.8677136 L13.8082737,28.8677136 Z" id="Path-67" fill="#11B77A"></path>
                    <path d="M3.40547295,18.7069369 C5.01051972,20.2946476 8.45714526,23.6643369 13.7453496,28.8160051 L13.7453499,28.8160048 C14.7689592,29.8131855 16.4071332,29.7917609 17.404314,28.7681516 C17.4693629,28.7013787 17.5307558,28.6311393 17.5882242,28.5577406 C27.7789834,15.5421005 33.7148282,7.9578006 35.3957587,5.80484089 C38.0603394,2.39200795 33.1546308,-0.773922602 31.0209529,2.02479502 C29.5985009,3.89060677 24.3944674,10.5951605 15.4088524,22.1384563 C11.964452,18.8348209 9.31795697,16.3242516 7.46936722,14.6067483 C4.69648259,12.0304934 0.697491074,16.028204 3.40547295,18.7069369 Z" id="Path-60" stroke="#253733" stroke-width="2.15625" stroke-linecap="round" stroke-linejoin="round"></path>
                </g>
            </g>
            <g id="circleIcon/error" transform="translate(585.464567, 238.433333)">
                <g id="Group-Copy-3" stroke-width="1" fill-rule="evenodd">
                    <ellipse id="Oval-4" fill="#FADFE6" cx="36.728125" cy="36.6782227" rx="36.728125" ry="36.6782227"></ellipse>
                    <ellipse id="Oval-5" fill="#E29EA9" cx="36.728125" cy="51.1570312" rx="20.1130208" ry="2.6234375"></ellipse>
                </g>
                <g id="artIcon/error" transform="translate(17.489583, 15.740625)">
                    <path d="M21.6409315,4.98627343 L34.0991388,30.1460389 C34.712972,31.3856956 34.2056418,32.888246 32.9659851,33.5020793 C32.6204617,33.67317 32.2401043,33.7621823 31.8545418,33.7621823 L5.01729962,33.7621823 C3.633992,33.7621823 2.51259962,32.6407899 2.51259962,31.2574823 C2.51259962,30.8215455 2.62637825,30.3931571 2.84268646,30.0146711 L17.2217213,4.8549056 C17.908107,3.65389992 19.43814,3.23671797 20.6391457,3.92310365 C21.0712956,4.17008124 21.42006,4.54021602 21.6409315,4.98627343 Z" id="Triangle-Copy-4" fill="#FF8CA5" fill-rule="evenodd"></path>
                    <path d="M18.7285714,5.12772374 C24.6975415,18.0712882 28.1785897,25.5976957 29.1717161,27.7069461 C30.6614057,30.8708219 30.3676287,32.6046779 23.8105711,32.6046779 C22.9313284,32.6046779 26.1521306,32.6046779 33.4729776,32.6046779 L34.3979752,30.4428448 L20.817932,5.83621791 L18.7285714,5.12772374 Z" id="Path-50" fill="#FFCEDC" fill-rule="evenodd"></path>
                    <path d="M2.80928571,5.14144095 C8.94484375,18.0758606 12.509186,25.5976957 13.5023124,27.7069461 C14.992002,30.8708219 12.9321334,32.6046779 8.14116734,32.6046779 C4.94718994,32.6046779 8.16799212,32.6046779 17.8035739,32.6046779 L18.7285714,30.4428448 L5.14852818,5.83621791 L2.80928571,5.14144095 Z" id="Path-50" fill="#E04D80" fill-rule="evenodd" transform="translate(10.768929, 18.873059) scale(-1, 1) translate(-10.768929, -18.873059) "></path>
                    <path d="M18.7640647,12.3063439 L18.7640647,12.3063439 C19.7210184,12.3063439 20.4967827,13.0821082 20.4967827,14.0390619 C20.4967827,14.0599543 20.4964048,14.0808451 20.4956493,14.1017239 L20.1601882,23.3717624 C20.1329474,24.1245298 19.5148012,24.7207113 18.7615411,24.7207113 L18.7615411,24.7207113 C18.0083668,24.7207113 17.3903739,24.1244354 17.3634418,23.3717427 L17.0317512,14.1017501 C16.9975183,13.1450198 17.7453503,12.3416854 18.7020806,12.3074525 C18.7227337,12.3067135 18.7433984,12.3063439 18.7640647,12.3063439 Z" id="Rectangle-4" fill="#2A2825" fill-rule="evenodd"></path>
                    <circle id="Oval-19" fill="#2A2825" fill-rule="evenodd" cx="18.7178695" cy="27.9170349" r="1.86215518"></circle>
                    <path d="M20.7652201,5.5753287 C20.5451636,5.16665237 20.2100346,4.83152332 19.8013582,4.61146683 C18.6479848,3.99041958 17.2095326,4.42195524 16.5884853,5.5753287 L3.35503451,30.1517373 C3.16894106,30.4973395 3.0715269,30.8837233 3.0715269,31.2762429 C3.0715269,32.5861932 4.13345151,33.6481179 5.4434019,33.6481179 L31.9103035,33.6481179 C32.3028231,33.6481179 32.6892069,33.5507037 33.034809,33.3646102 C34.1881825,32.743563 34.6197181,31.3051108 33.9986709,30.1517373 L20.7652201,5.5753287 Z" id="Triangle-Copy-3" stroke="#2A2825" stroke-width="2.15625"></path>
                </g>
            </g>
            <g id="circleIcon/tag">
                <g id="Group-Copy-3">
                    <ellipse id="Oval-4" fill="#FAE1CA" cx="36.728125" cy="36.6782227" rx="36.728125" ry="36.6782227"></ellipse>
                    <ellipse id="Oval-4" fill="#EFC8A4" cx="36.728125" cy="53.7804687" rx="15.740625" ry="3.06067708"></ellipse>
                </g>
                <g id="artIcon/tag" transform="translate(19.238542, 20.113021)">
                    <g id="Group" transform="translate(16.116417, 18.047794) rotate(11.000000) translate(-16.116417, -18.047794) translate(0.591417, 4.247794)">
                        <g id="Group-2" transform="translate(0.000000, 0.000000)">
                            <mask id="mask-13" fill="white">
                                <use xlink:href="#path-12"></use>
                            </mask>
                            <use id="fill" fill="#FFAC6C" xlink:href="#path-12"></use>
                            <path d="M8.8593843,3.9417048 L27.9133324,15.0897502 C28.7229297,15.5634278 29.0056579,16.5972067 28.5498046,17.4169724 L24.8961285,23.9874152 L-2.10229682,7.87824813 L8.8593843,3.9417048 Z" id="fill" fill="url(#linearGradient-14)" mask="url(#mask-13)" transform="translate(13.297158, 13.964560) scale(1, -1) rotate(-60.000000) translate(-13.297158, -13.964560) "></path>
                            <path d="M2.24662242,3.79039808 L9.90352362,2.48184459 C10.6832882,2.34858393 11.4851638,2.48734461 12.1748073,2.87487919 L27.6018827,11.5438876 C28.8532428,12.2470702 29.5384725,13.6515939 29.3224966,15.0706507 L29.2244807,15.7146583 L31.4637305,10.9092987 C18.805402,3.24231011 12.3290935,-0.545240605 12.034805,-0.453353436 C11.7405166,-0.361466267 8.47778902,1.05311757 2.24662242,3.79039808 Z" id="Path-2" fill="#FFE4CF" mask="url(#mask-13)"></path>
                        </g>
                        <path d="M13.1927265,-0.26938785 L13.1927771,-0.269358616 L30.0937103,9.503438 C31.4333689,10.2779854 31.8919638,11.9915855 31.1182785,13.3316478 L24.1357683,25.4278254 C23.3617067,26.7685394 21.6473423,27.227902 20.3066283,26.4538404 C20.2889681,26.443587 20.2889681,26.443587 20.2714083,26.4331626 L3.37843577,16.3490166 C2.70711968,15.948279 2.23366938,15.2853858 2.07238596,14.5203736 L0.253607601,5.89340134 C-0.0352394374,4.5233194 0.731226374,3.15022563 2.04902573,2.6769794 L10.8422622,-0.480835182 C11.6186926,-0.759665741 12.4785266,-0.682315231 13.1927265,-0.26938785 Z" id="outline" stroke="#31323D" stroke-width="2.15625" stroke-linecap="round" stroke-linejoin="round"></path>
                        <circle id="Oval" fill="#31323D" cx="9.03077182" cy="8.91634703" r="2.85986842"></circle>
                    </g>
                </g>
            </g>
            <g id="circleIcon/gift" transform="translate(233.149606, 0.000000)">
                <g id="Group-Copy-3">
                    <ellipse id="Oval-4" fill="#FCDEDE" cx="36.728125" cy="36.6782227" rx="36.728125" ry="36.6782227"></ellipse>
                    <ellipse id="Oval-4" fill="#EFBABA" cx="36.728125" cy="53.7804687" rx="15.740625" ry="3.06067708"></ellipse>
                </g>
                <g id="artIcon/gift" transform="translate(19.238542, 20.987500)">
                    <g id="Group" transform="translate(3.450000, 2.587500)">
                        <path d="M13.8367223,5.12625967 C9.57095397,4.22820317 3.2057028,2.93704298 4.41545021,0.753596437 C5.94963006,-2.0154111 10.7766837,3.66495841 14.1818146,4.64517459 C19.5876247,6.20131523 19.3700381,6.29116825 13.8367223,5.12625967 Z" id="Path-12" stroke="#2A2825" stroke-width="2.15625"></path>
                        <path d="M18.3668797,5.16367869 C14.1011114,4.26562219 7.89536595,2.93704298 9.10511336,0.753596437 C10.6392932,-2.0154111 15.4663469,3.66495841 18.8714778,4.64517459 C24.2772879,6.20131523 23.9001955,6.32858727 18.3668797,5.16367869 Z" id="Path-12" stroke="#2A2825" stroke-width="2.15625" transform="translate(15.839795, 2.969608) scale(-1, 1) translate(-15.839795, -2.969608) "></path>
                        <path d="M1.12832232,9.47945868 L1.33876941,5.19585144 L26.2598372,4.78963465 L26.9333796,11.7030261 L26.8037983,11.7030261 C25.8511071,11.7030261 25.0787983,12.4753349 25.0787983,13.4280261 C25.0787983,13.4576407 25.0795609,13.4872505 25.0810855,13.5168258 L25.717314,25.8596449 C25.7663568,26.811073 25.0348289,27.6221148 24.0834009,27.6711575 C24.0538255,27.672682 24.0242158,27.6734447 23.9946012,27.6734447 L3.69526767,27.6734447 C2.74257647,27.6734447 1.97026767,26.9011359 1.97026767,25.9484447 C1.97026767,25.9136607 1.97131977,25.8788847 1.97342254,25.8441644 L2.85492187,11.2891032 L2.85124434,11.2891032 C1.89855315,11.2891032 1.12624434,10.5167944 1.12624434,9.56410321 C1.12624434,9.53587561 1.12693721,9.50765227 1.12832232,9.47945868 Z" id="fill" fill="#FF7694"></path>
                        <path d="M13.8367223,7.14174179 L13.8367223,25.6067345" id="Line" stroke="#FFD300" stroke-width="5.175" stroke-linecap="square"></path>
                        <rect id="Rectangle-7" fill="#C90541" opacity="0.336956507" x="3.55896464" y="10.776678" width="20.5555154" height="5.98704332"></rect>
                        <rect id="Rectangle" fill="#FFFFFF" opacity="0.5" x="1.8626357" y="5.60139936" width="23.9481733" height="2.39481733"></rect>
                        <path d="M2.9407607,11.3248989 L2.9407607,28.1055974 C2.9407607,28.4628566 3.2303765,28.7524724 3.5876357,28.7524724 L24.085809,28.7524724 C24.4430682,28.7524724 24.732684,28.4628566 24.732684,28.1055974 L24.732684,11.3248989 L2.9407607,11.3248989 Z" id="outline" stroke="#2A2825" stroke-width="2.15625"></path>
                        <rect id="Rectangle-8" stroke="#2A2825" stroke-width="2.15625" x="1.45597423" y="4.83078122" width="24.6319853" height="6.85433854" rx="0.8625"></rect>
                    </g>
                </g>
            </g>
            <g id="img/badgeFancy" transform="translate(1.000000, 239.433333)">
                <g id="Group" transform="translate(0.133366, 0.133854)">
                    <mask id="mask-17" fill="white">
                        <use xlink:href="#path-16"></use>
                    </mask>
                    <use id="Rectangle-20" fill="url(#linearGradient-15)" xlink:href="#path-16"></use>
                    <rect id="Rectangle-20" fill="#E5D5FF" mask="url(#mask-17)" x="0" y="0" width="70.2687008" height="70.2989583" rx="35.1343504"></rect>
                    <ellipse id="Oval" fill="#000000" style="mix-blend-mode: soft-light;" mask="url(#mask-17)" cx="35.7010335" cy="57.799566" rx="16.4338091" ry="2.83463542"></ellipse>
                </g>
                <g id="Group-8" transform="translate(15.487779, 16.061806)">
                    <g id="fill" transform="translate(0.989597, 0.000000)">
                        <path d="M32.2765273,24.7475325 L33.6673379,6.57206536 C33.6673379,3.39612032 27.2335779,0.410754085 19.2971327,0.410754085 C11.3606875,0.410754085 4.92692749,3.39612032 4.92692749,6.57206536 L6.31728933,24.7475325 L32.2765273,24.7475325 Z" id="Oval-13-Copy-2" fill="#9F80CD"></path>
                        <g id="band" transform="translate(5.513466, 16.087868)">
                            <mask id="mask-19" fill="white">
                                <use xlink:href="#path-18"></use>
                            </mask>
                            <g id="Oval-13-Copy-3"></g>
                            <g id="patternRainbow" mask="url(#mask-19)">
                                <g transform="translate(-4.594555, -0.482938)">
                                    <polygon id="Rectangle-2" fill="#45F0F4" points="17.2170164 0 23.4694857 0 18.6391423 10.0549177 12.386673 10.0549177"></polygon>
                                    <path d="M11.0236799,0 L17.2761492,0 L12.4458058,10.0549177 C8.43908408,11.1974225 6.35492765,11.1974225 6.1933365,10.0549177 C5.88088568,7.84578326 7.49100014,4.49414402 11.0236799,0 Z" id="Rectangle-2-Copy" fill="#FCDF35"></path>
                                    <polygon id="Rectangle-2" fill="#7C40FF" points="23.4103529 0 29.6628222 0 24.8324788 10.0549177 18.5800095 10.0549177"></polygon>
                                    <polygon id="Rectangle-2" fill="#EF52D1" points="28.8877062 0.956788262 33.0247009 1.60856239 32.7453022 8.56081977 25.4811559 8.56081977"></polygon>
                                    <path d="M4.83034338,0 L11.0828127,0 C8.84392696,4.07934894 7.2338125,7.43098817 6.2524693,10.0549177 C4.99316844,11.1974225 2.909012,11.1974225 0,10.0549177 L4.83034338,0 Z" id="Rectangle-2" fill="#FBBB76"></path>
                                </g>
                            </g>
                        </g>
                        <ellipse id="Oval-13" fill="#FFF4FF" cx="19.2971327" cy="29.2412453" rx="18.8865554" ry="5.80120789"></ellipse>
                    </g>
                    <g id="lighting" transform="translate(0.636169, 1.792648)">
                        <path d="M29.8359278,22.0521741 L31.7052656,22.7011313 C32.8734223,10.5662073 33.4575007,4.49874524 33.4575007,4.49874524 C32.8419745,3.8079233 32.393855,3.29943934 31.5385218,2.85378745 C31.5385218,2.85378745 30.9709904,9.25324967 29.8359278,22.0521741 Z" id="Path-33" fill="#FFFFFF" style="mix-blend-mode: overlay;"></path>
                        <path d="M5.57861239,21.7503379 L10.3484693,23.2759674 C11.1914027,10.1449481 11.6128694,3.57943848 11.6128694,3.57943848 C11.2025186,3.11889052 9.49280586,2.03240078 6.48373118,0.319969257 L5.57861239,21.7503379 Z" id="Path-33" fill="#000000" opacity="0.900000036" style="mix-blend-mode: soft-light;" transform="translate(8.595741, 11.797968) scale(-1, 1) translate(-8.595741, -11.797968) "></path>
                        <path d="M18.9193969,33.249805 C28.9463432,33.249805 36.813293,30.922368 36.813293,28.051329 C36.813293,25.18029 29.4058608,22.7705213 19.3789145,22.7705213 C9.35196822,22.7705213 0.76400463,24.2646893 0.76400463,28.051329 C0.76400463,31.8379687 8.89245062,33.249805 18.9193969,33.249805 Z" id="Oval-13" fill="#7F62B8"></path>
                    </g>
                    <g id="outline" transform="translate(0.636169, 0.000000)">
                        <path d="M32.2088485,24.7475325 L34.0207652,5.97504507 C31.4810915,2.7574714 25.7387946,0.4592045 19.65056,0.4592045 C13.5623254,0.4592045 7.58940341,2.52764471 5.28035483,5.97504507 L7.09227152,24.7475325" id="Oval-13-Copy-2" stroke="#3A204B" stroke-width="2.22868652" stroke-linejoin="round"></path>
                        <ellipse id="Oval-13" stroke="#3A204B" stroke-width="1.78294922" cx="19.65056" cy="29.2412453" rx="18.8865554" ry="6.09018864"></ellipse>
                        <path d="M38.5371154,28.8997704 C38.5371154,25.536252 30.0813165,22.4566117 19.65056,22.4566117 C9.2198035,22.4566117 0.76400463,25.536252 0.76400463,28.8997704" id="Oval-13" stroke="#3A204B" stroke-width="1.85723877" stroke-linecap="round"></path>
                        <path d="M33.1322203,18.9119984 C31.0237288,17.5696763 25.4403032,16.1367676 19.726913,16.1367676 C14.0643208,16.1367676 8.20452001,17.6196784 6.1759497,19.0169057" id="Oval-13-Copy-3" stroke="#3A204B" stroke-width="2.22868652"></path>
                        <ellipse id="Oval-13" fill="#3A204B" cx="19.65056" cy="29.6787134" rx="12.9537806" ry="3.50481718"></ellipse>
                    </g>
                </g>
            </g>
            <g id="img/badgeExclusive" transform="translate(118.438320, 239.433333)">
                <mask id="mask-21" fill="white">
                    <use xlink:href="#path-20"></use>
                </mask>
                <use id="Rectangle-20" fill-opacity="0.753594882" fill="#FFFFFF" xlink:href="#path-20"></use>
                <g id="star" mask="url(#mask-21)">
                    <g transform="translate(-8.366880, -9.936979)">
                        <g id="Group" transform="translate(41.049358, 45.555202) rotate(-90.000000) translate(-41.049358, -45.555202) translate(-3.950642, 5.055202)">
                            <polygon id="Path-29" fill="#45F0F4" transform="translate(58.574526, 61.709515) scale(-1, 1) rotate(-108.000000) translate(-58.574526, -61.709515) " points="44.9619174 46.4730025 72.1871345 80.061653 71.5951807 43.3573779"></polygon>
                            <polygon id="Path-29" fill="#9664FE" transform="translate(66.909337, 39.295227) scale(-1, 1) rotate(-108.000000) translate(-66.909337, -39.295227) " points="54.9108654 19.9391955 56.6382677 58.6512586 78.9078093 29.5273577"></polygon>
                            <polygon id="Path-29" fill="#FFE863" transform="translate(44.023499, 61.228125) rotate(-180.000000) translate(-44.023499, -61.228125) " points="18.416093 43.0864583 41.5331938 79.3697917 69.6309056 43.0864583"></polygon>
                            <polygon id="Path-29" fill="#FDA03D" transform="translate(31.308686, 61.228125) rotate(-180.000000) translate(-31.308686, -61.228125) " points="17.2827269 43.0864583 17.2827269 79.3697917 45.3346457 43.0864583"></polygon>
                            <polygon id="Path-29" fill="#45EFF3" transform="translate(32.843018, 30.698677) scale(1, -1) rotate(-148.000000) translate(-32.843018, -30.698677) " points="6.36406827 11.8881039 29.8622519 49.5092511 59.3219674 12.2910587"></polygon>
                            <polygon id="Path-29" fill="#FFE863" transform="translate(43.357705, 22.771785) scale(1, -1) rotate(-148.000000) translate(-43.357705, -22.771785) " points="33.2227055 10.2776634 53.4927042 42.7304102 53.4509325 2.81315997"></polygon>
                            <polygon id="Path-29" fill="#FCA13D" transform="translate(47.799970, 23.864824) scale(-1, -1) rotate(-148.000000) translate(-47.799970, -23.864824) " points="36.6718249 10.7026683 56.9793606 43.2155127 58.9281159 5.14575787 52.1855102 4.51413551"></polygon>
                            <polygon id="Path-29" fill="#FF63E1" transform="translate(65.880153, 34.300172) scale(-1, -1) rotate(-148.000000) translate(-65.880153, -34.300172) " points="55.5022095 14.2139984 54.1991668 54.3863463 77.561139 23.3198662"></polygon>
                            <polygon id="Path-29" fill="#FD64E2" transform="translate(27.759216, 49.137747) rotate(-108.000000) translate(-27.759216, -49.137747) " points="1.07408362 33.4685505 26.3466358 67.2794135 54.4443477 30.9960802"></polygon>
                            <polygon id="Path-29" fill="#9565FF" transform="translate(23.605947, 38.998204) rotate(-108.000000) translate(-23.605947, -38.998204) " points="11.8164679 19.8721093 12.1291327 58.1242983 35.3954266 27.5366763"></polygon>
                            <mask id="mask-23" fill="white">
                                <use xlink:href="#path-22"></use>
                            </mask>
                            <use id="Rectangle-20" fill-opacity="0.753594882" fill="#FFFFFF" opacity="0.150000006" xlink:href="#path-22"></use>
                        </g>
                        <g id="img/star" transform="translate(44.344135, 44.859754) rotate(-2.000000) translate(-44.344135, -44.859754) translate(23.844135, 24.859754)">
                            <g id="fill" transform="translate(0.000000, 0.153918)">
                                <path d="M21.9675445,1.3722352 L18.3582999,1.42116263 L13.3152767,13.3500537 L2.45749674,14.2520503 L1.38933386,15.1911867 L0.886056086,17.6825781 L9.49432347,25.3294217 C7.43829402,32.3857305 6.41481829,35.9635429 6.42389629,36.0628588 C6.43297428,36.1621747 6.7799671,36.4652373 7.46487475,36.9720466 L8.75510255,37.9987293 L10.6179967,38.157696 L19.8602247,31.5802848 L28.7447675,38.3191946 C31.0590622,38.6659866 32.1419043,38.4342975 31.9932939,37.6241272 C31.8446834,36.8139569 28.5027669,24.7299929 21.9675445,1.3722352 Z" id="Path-3" fill="#FDAA45"></path>
                                <path d="M21.4831667,30.2945023 L12.3404482,37.0665786 C11.5868558,37.6247698 10.523445,37.4663659 9.96525382,36.7127735 C9.66171519,36.3029777 9.55842702,35.7784577 9.68393494,35.2841743 L12.4510561,24.3865193 C12.5042478,24.1770365 12.4335006,23.955548 12.268723,23.8156883 L4.46674264,17.1935319 C3.75176119,16.5866708 3.66411238,15.5151056 4.27097356,14.8001241 C4.5750585,14.4418625 5.01401084,14.2256313 5.48337398,14.2028868 L15.7115896,13.707245 C15.938004,13.6962733 16.1360354,13.5512783 16.2148734,13.3387497 L20.2318831,2.50984559 C20.5580465,1.63058658 21.5352344,1.18221399 22.4144934,1.50837737 C22.8782435,1.68040666 23.2439324,2.0460955 23.4159617,2.50984559 L27.4329714,13.3387497 C27.5118094,13.5512783 27.7098408,13.6962733 27.9362552,13.707245 L38.1644708,14.2028868 C39.101177,14.248278 39.8237307,15.0444253 39.7783395,15.9811315 C39.755595,16.4504947 39.5393638,16.889447 39.1811021,17.1935319 L31.3738141,23.8201933 C31.2118041,23.957704 31.1404648,24.1743724 31.189088,24.3812353 L33.758867,35.3141266 C33.9734503,36.227052 33.4073322,37.1410786 32.4944067,37.3556619 C32.0019579,37.4714122 31.4835432,37.3615727 31.0803502,37.0560577 L22.1619045,30.2982044 C21.9615755,30.1464073 21.6851397,30.1448995 21.4831667,30.2945023 Z" id="Star" fill="#FFFF92"></path>
                            </g>
                            <path d="M32.2926015,36.0367609 L29.5954327,25.0167854 C29.3932965,24.1909061 29.6709198,23.321401 30.3142526,22.7654706 L38.2322323,15.9232168 L27.8663891,15.5610777 C26.9379109,15.5286406 26.1234817,14.9322803 25.8122224,14.0569281 L22.5063513,4.75985064" id="Star" stroke="#FFFFFF" stroke-width="1.41503906" stroke-linecap="round" stroke-linejoin="round"></path>
                            <path d="M4.73639719,30.3563012 C4.41604286,30.1245557 4.48421479,29.9631704 4.94091298,29.8721453 L14.3732959,35.1854874 L11.58126,24.7182608 C11.364658,23.9062291 11.6412551,23.0424047 12.2891693,22.50743 L20.0163019,16.1974701 L10.0146219,15.792601 C9.63138523,15.7770876 9.26932531,15.6603339 8.9586344,15.4648912 C8.55075391,15.2083106 8.2314074,14.8161101 8.06890883,14.3393147 L3.96707555,1.97308197 C3.77570501,1.41157185 4.12278802,1.51718232 4.68405646,1.32572937 C5.2453249,1.13427642 5.80823782,0.718259389 5.99960837,1.27976951 L10.1684158,13.5116809 L20.1700958,13.91655 C20.7801428,13.9412448 21.3508424,14.2245598 21.7394766,14.6956447 C22.4944032,15.6107329 22.3648858,16.9648108 21.4501915,17.7200625 L13.9789818,23.8889467 L16.6259849,34.5953083 C16.7923944,35.2191707 16.3682525,36.8703809 15.9900687,37.3936151 C15.2951315,38.3550919 14.3989607,37.3462347 13.4378978,36.6509982 L4.73639719,30.3563012 Z" id="Star" fill="#FFDC37" fill-rule="nonzero" transform="translate(13.072424, 19.392909) scale(-1, 1) translate(-13.072424, -19.392909) "></path>
                            <g id="outline" transform="translate(-0.000000, 0.153918)" stroke="#6A2820" stroke-width="1.69804687">
                                <path d="M21.4831667,30.2945023 L12.3404482,37.0665786 C11.5868558,37.6247698 10.523445,37.4663659 9.96525382,36.7127735 C9.66171519,36.3029777 9.55842702,35.7784577 9.68393494,35.2841743 L12.4510561,24.3865193 C12.5042478,24.1770365 12.4335006,23.955548 12.268723,23.8156883 L4.46674264,17.1935319 C3.75176119,16.5866708 3.66411238,15.5151056 4.27097356,14.8001241 C4.5750585,14.4418625 5.01401084,14.2256313 5.48337398,14.2028868 L15.7115896,13.707245 C15.938004,13.6962733 16.1360354,13.5512783 16.2148734,13.3387497 L20.2318831,2.50984559 C20.5580465,1.63058658 21.5352344,1.18221399 22.4144934,1.50837737 C22.8782435,1.68040666 23.2439324,2.0460955 23.4159617,2.50984559 L27.4329714,13.3387497 C27.5118094,13.5512783 27.7098408,13.6962733 27.9362552,13.707245 L38.1644708,14.2028868 C39.101177,14.248278 39.8237307,15.0444253 39.7783395,15.9811315 C39.755595,16.4504947 39.5393638,16.889447 39.1811021,17.1935319 L31.3738141,23.8201933 C31.2118041,23.957704 31.1404648,24.1743724 31.189088,24.3812353 L33.758867,35.3141266 C33.9734503,36.227052 33.4073322,37.1410786 32.4944067,37.3556619 C32.0019579,37.4714122 31.4835432,37.3615727 31.0803502,37.0560577 L22.1619045,30.2982044 C21.9615755,30.1464073 21.6851397,30.1448995 21.4831667,30.2945023 Z" id="Star"></path>
                                <path d="M19.3746665,31.5969098 C24.0855814,35.3015026 26.9340415,37.4606883 27.920047,38.0744669 C29.2197882,38.883543 31.7422344,38.5702806 32.9788069,37.3847109" id="Path-31"></path>
                                <path d="M5.28390179,14.2231138 C3.76200739,14.3069602 3.76397194,14.2785694 2.05520805,14.4294076 C0.378998791,14.5773721 0.246160839,17.0963886 1.42936737,18.2143426 C2.36455012,19.0979511 4.90625305,21.4325021 9.05447615,25.2179957 C7.84935838,30.2816698 7.06055402,33.6355319 6.68806308,35.2795819 C6.34388763,36.7986568 7.80928428,38.0744669 9.25167723,38.0744669 C10.6649517,38.0744669 11.1933738,37.7868221 11.5341471,37.559542" id="Path-30"></path>
                                <path d="M22.0379286,1.08703167 C20.8831435,1.08703167 19.5669649,0.938106212 18.9717207,1.09402747 C17.9744632,1.35525415 17.5553331,1.95097871 17.0202037,3.26878756 C16.4505116,4.67171025 14.9517546,8.33363145 12.5239327,14.2545512" id="Path-2"></path>
                            </g>
                        </g>
                    </g>
                </g>
            </g>
            <g id="Group-3" transform="translate(351.587927, 0.000000)">
                <mask id="mask-25" fill="white">
                    <use xlink:href="#path-24"></use>
                </mask>
                <g id="Rectangle-20">
                    <use fill="#FFF8FC" xlink:href="#path-24"></use>
                    <use fill="#DAF1CA" xlink:href="#path-24"></use>
                </g>
                <g id="Group-2" mask="url(#mask-25)">
                    <g transform="translate(19.446843, 20.409375)" id="sapling">
                        <g transform="translate(0.149762, 0.056475)">
                            <ellipse id="Oval" fill="#9AD0A0" cx="18.7524861" cy="33.5557461" rx="15.5897624" ry="2.72758725"></ellipse>
                            <g id="fill" transform="translate(0.000000, 0.281639)" fill="#B3E572">
                                <path d="M19.8788864,23.9531225 C12.5204344,23.9531225 -1.26723016,17.0941955 0.528372663,0.175336606 C20.8090652,-1.7609296 27.3178123,19.4557044 19.8788864,23.9531225 Z" id="Path-5"></path>
                                <path d="M19.8788864,23.9531225 C22.1723009,21.6452401 22.8094503,21.6452401 22.8094503,16.0364091 C22.1723009,11.4464602 21.1528619,9.78915843 19.3345618,7.97754897 C21.7243629,4.9205701 25.3643867,2.4498298 30.4031279,1.75996697 C33.5069556,6.82946393 30.4031279,18.5858551 19.8788864,23.9531225 Z" id="Path-5"></path>
                            </g>
                            <g id="shadow" transform="translate(0.964630, 0.070336)" fill="#76C45B">
                                <path d="M18.9142559,24.1644249 C11.1699746,24.1644249 -1.61361328,17.5494396 0.181989541,0.630580711 C0.887129381,9.82899856 10.8685194,22.8236337 21.0437787,21.8696961 C22.6558161,21.7185665 20.4794464,23.3687409 18.9142559,24.1644249 Z" id="Path-5"></path>
                                <path d="M19.9153896,6.33440703 C22.454885,6.60696063 26.9695436,18.1904887 22.1021774,22.4150695 C21.606224,22.8455271 21.0653137,22.9817152 20.4794464,22.8236337 C21.1783705,19.106764 21.4228935,16.5640504 21.2130154,15.1954929 C21.0031373,13.8269354 20.0062631,11.4637729 18.2223927,8.10600543 C19.1156632,6.89967595 19.6799955,6.30914315 19.9153896,6.33440703 Z" id="Path-6"></path>
                            </g>
                            <g id="light" fill="#F9FFDA">
                                <path d="M0.705139841,1.15808664 C11.4274538,1.97574744 19.3053776,7.84006304 21.5991154,19.6324023 C21.5991154,13.3219072 18.991391,6.78797763 14.531006,3.54266447 C10.070621,0.297351319 6.48954607,0.612979435 0.705139841,1.15808664 Z" id="Path-7"></path>
                                <path d="M28.2891839,2.18029572 C29.244908,5.17618731 30.0094873,9.21071293 28.2891839,16.3180478 C32.2395101,9.53827701 30.7559734,11.3789797 30.8970565,7.39288333 C30.9911119,4.73548572 30.8852995,2.99795652 30.5796195,2.18029572 C29.0526625,1.65790132 28.2891839,1.65790132 28.2891839,2.18029572 Z" id="Path-8"></path>
                            </g>
                            <g id="outline" stroke="#1E3223" stroke-linejoin="round" stroke-width="2.15625">
                                <path d="M18.2674075,24.2715303 C16.8479848,17.9459021 12.6365791,10.1753293 7.52739879,6.85699587" id="Path-3" stroke-linecap="round"></path>
                                <path d="M18.5525535,24.5883533 C11.1941015,24.5883533 -1.26723016,17.3758342 0.528372663,0.456975326 C20.8090652,-1.47929088 25.9914794,20.0909351 18.5525535,24.5883533 Z" id="Path-5"></path>
                                <path d="M18.9045814,8.30779218 C21.4440769,5.06894689 25.1383533,2.11174033 30.614477,2.11174033 C31.8842247,9.01188898 30.5515104,20.8548857 18.4908805,24.6154368" id="Path-2"></path>
                                <path d="M25.6063032,8.80093498 C24.0392369,10.540069 22.7668137,12.6882421 21.7890337,15.2454542" id="Path-4" stroke-linecap="round"></path>
                            </g>
                            <path d="M18.3719331,24.5788833 C18.9748272,27.7152823 18.9103247,29.8618674 18.7430936,33.0542007" id="Path-32" stroke="#1E3223" stroke-width="2.15625" stroke-linecap="round" transform="translate(18.854248, 28.816542) rotate(-1.000000) translate(-18.854248, -28.816542) "></path>
                        </g>
                    </g>
                </g>
            </g>
        </g>
    </g>
</svg>