<svg xmlns="http://www.w3.org/2000/svg" width="52" height="64" viewBox="0 0 26 32">
  <defs>
    <style>
      .cls-1 {
        fill: #fdfaf4;
        fill-rule: evenodd;
      }
    </style>
  </defs>
  <path class="cls-1" d="M16.471,8.45a3.921,3.921,0,0,1,2.909,4.379,42.367,42.367,0,0,1-2.8,10.647,3.824,3.824,0,0,1-4.664,2.307L8.227,24.772a0.433,0.433,0,0,1-.363-0.488,0.449,0.449,0,0,1,.009-0.051L12.2,7.726a0.425,0.425,0,0,1,.529-0.3L12.775,7.44ZM8.29,0.02A0.9,0.9,0,0,0,7.152.593L0,27.832A0.923,0.923,0,0,0,.707,28.91l9.7,2.652A10.5,10.5,0,0,0,23.1,25.256a42.366,42.366,0,0,0,2.795-10.647,10.766,10.766,0,0,0-7.9-11.937Z"/>
</svg>
