<svg xmlns="http://www.w3.org/2000/svg" width="38" height="31" viewBox="0 0 117.683 96.005">
  <metadata><?xpacket begin="﻿" id="W5M0MpCehiHzreSzNTczkc9d"?>
<x:xmpmeta xmlns:x="adobe:ns:meta/" x:xmptk="Adobe XMP Core 5.6-c138 79.159824, 2016/09/14-01:09:01        ">
   <rdf:RDF xmlns:rdf="http://www.w3.org/1999/02/22-rdf-syntax-ns#">
      <rdf:Description rdf:about=""/>
   </rdf:RDF>
</x:xmpmeta>
                                                                                                    
                                                                                                    
                                                                                                    
                                                                                                    
                                                                                                    
                                                                                                    
                                                                                                    
                                                                                                    
                                                                                                    
                                                                                                    
                                                                                                    
                                                                                                    
                                                                                                    
                                                                                                    
                                                                                                    
                                                                                                    
                                                                                                    
                                                                                                    
                                                                                                    
                                                                                                    
                           
<?xpacket end="w"?></metadata>
<defs>
    <style>
      .cls-1 {
        fill: #222;
        fill-rule: evenodd;
      }
    </style>
  </defs>
  <path class="cls-1" d="M48,0C35,0,33.3.1,28.2,0.3A35.1,35.1,0,0,0,16.6,2.5a24.159,24.159,0,0,0-14,14A33.275,33.275,0,0,0,.4,28.2C0.1,33.3,0,35,0,48S0.1,62.7.3,67.8A36.184,36.184,0,0,0,2.5,79.5a24.159,24.159,0,0,0,14,14,33.155,33.155,0,0,0,11.6,2.2C33.3,95.9,35,96,48,96s14.7-.1,19.8-0.3a36.184,36.184,0,0,0,11.7-2.2,24.725,24.725,0,0,0,14-14,35.69,35.69,0,0,0,2.2-11.7C95.9,62.7,96,61,96,48s-0.1-14.7-.3-19.8a35.1,35.1,0,0,0-2.2-11.6,24.159,24.159,0,0,0-14-14A33.275,33.275,0,0,0,67.8.4C62.7,0.1,61,0,48,0ZM43.7,6.6H48c12.8,0,14.3,0,19.4.3A31.761,31.761,0,0,1,77,9,18.385,18.385,0,0,1,87,19a31.8,31.8,0,0,1,2.1,9.5c0.2,5.1.3,6.6,0.3,19.4s-0.1,14.3-.3,19.4a24.688,24.688,0,0,1-1.7,8.9,15.7,15.7,0,0,1-9.1,9.1c-2.9,1-7.9,3.6-10.9,3.6-5.1.2-6.6,0.3-19.4,0.3s-14.3,0-19.4-.2c-3,0-6.1-1.6-8.9-2.7-2.1-.8-5-2-6.5-3.6A16.9,16.9,0,0,1,9,77a29.994,29.994,0,0,1-2-9.7c-0.2-5-.3-6.5-0.3-19.3s0-14.3.3-19.4c0-3,1.6-7.1,2.6-9.9A21.645,21.645,0,0,1,14,12a11.578,11.578,0,0,1,5-3,32.43,32.43,0,0,1,9.6-2.1c4.4-.2,6.1-0.2,15.1-0.3h0Zm29.9,10a5.8,5.8,0,1,0,5.8,5.8,5.8,5.8,0,0,0-5.8-5.8h0ZM48,23.4A24.65,24.65,0,1,0,72.7,48,24.582,24.582,0,0,0,48,23.4h0ZM48,30c8.8,0,18,9.2,18,18S56.8,66,48,66,30,56.8,30,48,39.2,30,48,30Z" transform="translate(10.842 0.002)"/>
</svg>
