<svg xmlns="http://www.w3.org/2000/svg" width="32" height="26" viewBox="0 0 64 52">
  <defs>
    <style>
      .dd {
        fill: #222;
        fill-rule: evenodd;
      }
    </style>
  </defs>
  <path id="social-dribbble" class="dd" d="M2616,306a26,26,0,1,1,26-26A26.028,26.028,0,0,1,2616,306Zm21.93-22.442a32.632,32.632,0,0,0-13.84-.949,95.813,95.813,0,0,1,4.32,15.834A22.255,22.255,0,0,0,2637.93,283.559Zm-13.25,16.919a93.061,93.061,0,0,0-4.74-16.842l-0.15.049c-12.53,4.365-17.02,13.052-17.42,13.869A22.181,22.181,0,0,0,2624.68,300.478Zm-25.18-5.6c0.5-.861,6.6-10.953,18.05-14.655,0.29-.094.58-0.182,0.88-0.264-0.56-1.262-1.17-2.525-1.8-3.769a81.948,81.948,0,0,1-22.83,3.16c0,0.226-.01.452-0.01,0.679A22.1,22.1,0,0,0,2599.5,294.883Zm-5.24-19.4a82.845,82.845,0,0,0,20.53-2.706,143.519,143.519,0,0,0-8.23-12.844A22.278,22.278,0,0,0,2594.26,275.485Zm16.54-17.043a119.7,119.7,0,0,1,8.28,13c7.9-2.96,11.24-7.454,11.64-8.023A22.173,22.173,0,0,0,2610.8,258.442Zm22.39,7.548c-0.47.633-4.19,5.4-12.4,8.756,0.52,1.058,1.01,2.134,1.47,3.217q0.255,0.576.48,1.146a51.975,51.975,0,0,1,15.47.715A22.13,22.13,0,0,0,2633.19,265.99Z" transform="translate(-2584 -254)"/>
</svg>
